{
 "cells": [
  {
   "cell_type": "code",
   "execution_count": 47,
   "metadata": {},
   "outputs": [],
   "source": [
    "import mido\n",
    "import matplotlib.pyplot as plt\n",
    "import numpy as np\n",
    "from pretty_midi import PrettyMIDI\n",
    "import tensorflow as tf\n",
    "\n"
   ]
  },
  {
   "cell_type": "code",
   "execution_count": 48,
   "metadata": {},
   "outputs": [],
   "source": [
    "data = r\"C:\\Users\\Samsung\\OneDrive\\Área de Trabalho\\TCC_Project_Implementation\\data\\groove\\drummer1\\eval_session\\1_funk-groove1_138_beat_4-4.mid\""
   ]
  },
  {
   "cell_type": "markdown",
   "metadata": {},
   "source": [
    "Reading midi files with mido"
   ]
  },
  {
   "cell_type": "code",
   "execution_count": 49,
   "metadata": {},
   "outputs": [],
   "source": [
    "midi_file = mido.MidiFile(data,clip=True)\n"
   ]
  },
  {
   "cell_type": "markdown",
   "metadata": {},
   "source": [
    "# Explicação de uma MidiFile"
   ]
  },
  {
   "cell_type": "markdown",
   "metadata": {},
   "source": [
    "### MetaMessages e Messages"
   ]
  },
  {
   "cell_type": "markdown",
   "metadata": {},
   "source": [
    "MetaMessages são mensagens de midi que não estão relacionadas com a música em si, mas sim com informações sobre a música. Por exemplo, o nome do arquivo, o nome do autor, o tempo da música, etc.\n",
    "\n",
    "Message é uma mensagem de midi que está relacionada com a música em si. Por exemplo, uma nota, um acorde, um evento de controle, etc.\n",
    "\n",
    "MetaMessages são feitas para declarar informações sobre a música, enquanto Messages são feitas para representar a música em si."
   ]
  },
  {
   "cell_type": "markdown",
   "metadata": {},
   "source": [
    "### Tipos de MetaMessages"
   ]
  },
  {
   "cell_type": "markdown",
   "metadata": {},
   "source": [
    "track_name é uma mensagem de midi que indica o nome da track.\n",
    "\n",
    "set_tempo é uma mensagem de midi que indica o tempo da música.\n",
    "\n",
    "instrument_name é uma mensagem de midi que indica o nome do instrumento.\n",
    "\n",
    "time_signature é uma mensagem de midi que indica a assinatura de tempo da música.\n",
    "\n",
    "key_signature é uma mensagem de midi que indica a assinatura de clave da música.\n",
    "\n",
    "smpty_offsets é uma mensagem de midi que indica o offset da música."
   ]
  },
  {
   "cell_type": "markdown",
   "metadata": {},
   "source": [
    "### Tipos de Messages"
   ]
  },
  {
   "cell_type": "markdown",
   "metadata": {},
   "source": [
    "note_on é uma mensagem de midi que indica que uma nota foi tocada.\n",
    "\n",
    "note_off é uma mensagem de midi que indica que uma nota foi parada.\n",
    "\n",
    "control_change é uma mensagem de midi que indica que um evento de controle foi acionado. (ex: mudança de volume, mudança de instrumento, etc.)\n",
    "\n"
   ]
  },
  {
   "cell_type": "code",
   "execution_count": 59,
   "metadata": {},
   "outputs": [
    {
     "data": {
      "text/plain": [
       "MidiTrack([\n",
       "  MetaMessage('track_name', name='MIDI', time=0),\n",
       "  MetaMessage('instrument_name', name='Brooklyn', time=0),\n",
       "  MetaMessage('time_signature', numerator=4, denominator=4, clocks_per_click=24, notated_32nd_notes_per_beat=8, time=0),\n",
       "  MetaMessage('key_signature', key='C', time=0),\n",
       "  MetaMessage('smpte_offset', frame_rate=25, hours=1, minutes=0, seconds=0, frames=0, sub_frames=0, time=0),\n",
       "  MetaMessage('set_tempo', tempo=434783, time=0),\n",
       "  Message('note_on', channel=9, note=55, velocity=60, time=3),\n",
       "  Message('note_on', channel=9, note=51, velocity=55, time=4),\n",
       "  Message('note_on', channel=9, note=36, velocity=64, time=3),\n",
       "  Message('control_change', channel=9, control=4, value=90, time=3),\n",
       "  Message('note_off', channel=9, note=55, velocity=64, time=102),\n",
       "  Message('note_off', channel=9, note=51, velocity=64, time=3),\n",
       "  Message('note_off', channel=9, note=36, velocity=64, time=2),\n",
       "  Message('control_change', channel=9, control=4, value=87, time=69),\n",
       "  Message('note_on', channel=9, note=36, velocity=57, time=22),\n",
       "  Message('control_change', channel=9, control=4, value=90, time=10),\n",
       "  Message('note_on', channel=9, note=51, velocity=31, time=17),\n",
       "  Message('note_off', channel=9, note=36, velocity=64, time=84),\n",
       "  Message('control_change', channel=9, control=4, value=58, time=26),\n",
       "  Message('note_off', channel=9, note=51, velocity=64, time=0),\n",
       "  Message('control_change', channel=9, control=4, value=0, time=34),\n",
       "  Message('control_change', channel=9, control=4, value=76, time=63),\n",
       "  Message('note_on', channel=9, note=44, velocity=77, time=1),\n",
       "  Message('note_on', channel=9, note=51, velocity=54, time=21),\n",
       "  Message('note_on', channel=9, note=38, velocity=93, time=8),\n",
       "  Message('control_change', channel=9, control=4, value=90, time=6),\n",
       "  Message('note_off', channel=9, note=44, velocity=64, time=77),\n",
       "  Message('note_off', channel=9, note=51, velocity=64, time=20),\n",
       "  Message('note_off', channel=9, note=38, velocity=64, time=8),\n",
       "  Message('control_change', channel=9, control=4, value=74, time=6),\n",
       "  Message('control_change', channel=9, control=4, value=26, time=32),\n",
       "  Message('control_change', channel=9, control=4, value=77, time=42),\n",
       "  Message('note_on', channel=9, note=44, velocity=52, time=0),\n",
       "  Message('control_change', channel=9, control=4, value=90, time=36),\n",
       "  Message('note_on', channel=9, note=51, velocity=42, time=2),\n",
       "  Message('note_off', channel=9, note=44, velocity=64, time=75),\n",
       "  Message('control_change', channel=9, control=4, value=57, time=35),\n",
       "  Message('note_off', channel=9, note=51, velocity=64, time=2),\n",
       "  Message('note_on', channel=9, note=38, velocity=33, time=12),\n",
       "  Message('control_change', channel=9, control=4, value=0, time=21),\n",
       "  Message('control_change', channel=9, control=4, value=76, time=59),\n",
       "  Message('note_on', channel=9, note=44, velocity=77, time=0),\n",
       "  Message('note_off', channel=9, note=38, velocity=64, time=31),\n",
       "  Message('note_on', channel=9, note=51, velocity=46, time=1),\n",
       "  Message('control_change', channel=9, control=4, value=90, time=4),\n",
       "  Message('note_on', channel=9, note=44, velocity=0, time=27),\n",
       "  Message('note_on', channel=9, note=51, velocity=0, time=0),\n",
       "  Message('note_on', channel=9, note=38, velocity=33, time=95),\n",
       "  Message('control_change', channel=9, control=4, value=42, time=31),\n",
       "  Message('control_change', channel=9, control=4, value=78, time=34),\n",
       "  Message('note_on', channel=9, note=44, velocity=47, time=0),\n",
       "  Message('note_on', channel=9, note=36, velocity=59, time=32),\n",
       "  Message('control_change', channel=9, control=4, value=90, time=4),\n",
       "  Message('note_on', channel=9, note=51, velocity=42, time=1),\n",
       "  Message('note_off', channel=9, note=38, velocity=64, time=9),\n",
       "  Message('note_off', channel=9, note=44, velocity=64, time=66),\n",
       "  Message('note_off', channel=9, note=36, velocity=64, time=31),\n",
       "  Message('note_off', channel=9, note=51, velocity=64, time=6),\n",
       "  Message('control_change', channel=9, control=4, value=58, time=7),\n",
       "  Message('control_change', channel=9, control=4, value=0, time=31),\n",
       "  Message('control_change', channel=9, control=4, value=76, time=71),\n",
       "  Message('note_on', channel=9, note=44, velocity=77, time=1),\n",
       "  Message('note_on', channel=9, note=51, velocity=64, time=32),\n",
       "  Message('control_change', channel=9, control=4, value=90, time=3),\n",
       "  Message('note_on', channel=9, note=40, velocity=114, time=22),\n",
       "  Message('note_off', channel=9, note=44, velocity=64, time=55),\n",
       "  Message('note_off', channel=9, note=51, velocity=64, time=32),\n",
       "  Message('note_off', channel=9, note=40, velocity=64, time=24),\n",
       "  Message('control_change', channel=9, control=4, value=62, time=25),\n",
       "  Message('control_change', channel=9, control=4, value=80, time=39),\n",
       "  Message('note_on', channel=9, note=44, velocity=17, time=1),\n",
       "  Message('control_change', channel=9, control=4, value=90, time=35),\n",
       "  Message('note_on', channel=9, note=51, velocity=44, time=21),\n",
       "  Message('note_off', channel=9, note=44, velocity=64, time=56),\n",
       "  Message('control_change', channel=9, control=4, value=58, time=41),\n",
       "  Message('note_off', channel=9, note=51, velocity=64, time=14),\n",
       "  Message('note_on', channel=9, note=38, velocity=30, time=7),\n",
       "  Message('control_change', channel=9, control=4, value=0, time=11),\n",
       "  Message('control_change', channel=9, control=4, value=78, time=71),\n",
       "  Message('note_on', channel=9, note=44, velocity=72, time=0),\n",
       "  Message('note_off', channel=9, note=38, velocity=64, time=29),\n",
       "  Message('note_on', channel=9, note=51, velocity=42, time=5),\n",
       "  Message('control_change', channel=9, control=4, value=90, time=2),\n",
       "  Message('note_on', channel=9, note=36, velocity=55, time=0),\n",
       "  Message('note_off', channel=9, note=44, velocity=64, time=77),\n",
       "  Message('note_off', channel=9, note=36, velocity=64, time=33),\n",
       "  Message('note_off', channel=9, note=51, velocity=64, time=0),\n",
       "  Message('control_change', channel=9, control=4, value=74, time=12),\n",
       "  Message('control_change', channel=9, control=4, value=11, time=36),\n",
       "  Message('control_change', channel=9, control=4, value=77, time=39),\n",
       "  Message('note_on', channel=9, note=44, velocity=60, time=1),\n",
       "  Message('control_change', channel=9, control=4, value=90, time=35),\n",
       "  Message('note_on', channel=9, note=36, velocity=62, time=2),\n",
       "  Message('note_on', channel=9, note=51, velocity=41, time=13),\n",
       "  Message('note_off', channel=9, note=44, velocity=64, time=62),\n",
       "  Message('note_off', channel=9, note=36, velocity=64, time=36),\n",
       "  Message('note_off', channel=9, note=51, velocity=64, time=13),\n",
       "  Message('control_change', channel=9, control=4, value=57, time=5),\n",
       "  Message('control_change', channel=9, control=4, value=0, time=35),\n",
       "  Message('control_change', channel=9, control=4, value=76, time=67),\n",
       "  Message('note_on', channel=9, note=44, velocity=80, time=0),\n",
       "  Message('note_on', channel=9, note=38, velocity=94, time=23),\n",
       "  Message('note_on', channel=9, note=51, velocity=51, time=1),\n",
       "  Message('control_change', channel=9, control=4, value=90, time=11),\n",
       "  Message('note_off', channel=9, note=44, velocity=64, time=77),\n",
       "  Message('note_off', channel=9, note=38, velocity=64, time=22),\n",
       "  Message('note_off', channel=9, note=51, velocity=64, time=0),\n",
       "  Message('control_change', channel=9, control=4, value=74, time=16),\n",
       "  Message('control_change', channel=9, control=4, value=10, time=34),\n",
       "  Message('control_change', channel=9, control=4, value=77, time=44),\n",
       "  Message('note_on', channel=9, note=44, velocity=67, time=1),\n",
       "  Message('control_change', channel=9, control=4, value=90, time=35),\n",
       "  Message('note_on', channel=9, note=51, velocity=45, time=2),\n",
       "  Message('note_off', channel=9, note=44, velocity=64, time=75),\n",
       "  Message('note_off', channel=9, note=51, velocity=64, time=36),\n",
       "  Message('control_change', channel=9, control=4, value=41, time=3),\n",
       "  Message('note_on', channel=9, note=38, velocity=32, time=6),\n",
       "  Message('control_change', channel=9, control=4, value=0, time=24),\n",
       "  Message('control_change', channel=9, control=4, value=78, time=70),\n",
       "  Message('note_on', channel=9, note=44, velocity=72, time=1),\n",
       "  Message('note_off', channel=9, note=38, velocity=64, time=16),\n",
       "  Message('note_on', channel=9, note=51, velocity=43, time=4),\n",
       "  Message('control_change', channel=9, control=4, value=90, time=14),\n",
       "  Message('note_off', channel=9, note=44, velocity=64, time=77),\n",
       "  Message('note_off', channel=9, note=51, velocity=64, time=20),\n",
       "  Message('note_on', channel=9, note=38, velocity=24, time=2),\n",
       "  Message('control_change', channel=9, control=4, value=76, time=23),\n",
       "  Message('control_change', channel=9, control=4, value=30, time=40),\n",
       "  Message('note_on', channel=9, note=36, velocity=47, time=16),\n",
       "  Message('control_change', channel=9, control=4, value=78, time=19),\n",
       "  Message('note_on', channel=9, note=44, velocity=35, time=1),\n",
       "  Message('note_off', channel=9, note=38, velocity=64, time=12),\n",
       "  Message('note_on', channel=9, note=51, velocity=36, time=16),\n",
       "  Message('control_change', channel=9, control=4, value=90, time=6),\n",
       "  Message('note_off', channel=9, note=36, velocity=64, time=57),\n",
       "  Message('note_off', channel=9, note=44, velocity=64, time=20),\n",
       "  Message('note_on', channel=9, note=36, velocity=54, time=14),\n",
       "  Message('note_off', channel=9, note=51, velocity=64, time=14),\n",
       "  Message('control_change', channel=9, control=4, value=57, time=21),\n",
       "  Message('control_change', channel=9, control=4, value=0, time=31),\n",
       "  Message('note_off', channel=9, note=36, velocity=64, time=46),\n",
       "  Message('note_on', channel=9, note=38, velocity=89, time=16),\n",
       "  Message('control_change', channel=9, control=4, value=76, time=9),\n",
       "  Message('note_on', channel=9, note=44, velocity=77, time=0),\n",
       "  Message('note_on', channel=9, note=51, velocity=54, time=4),\n",
       "  Message('control_change', channel=9, control=4, value=90, time=31),\n",
       "  Message('note_off', channel=9, note=38, velocity=64, time=67),\n",
       "  Message('note_off', channel=9, note=44, velocity=64, time=10),\n",
       "  Message('note_off', channel=9, note=51, velocity=64, time=3),\n",
       "  Message('control_change', channel=9, control=4, value=27, time=60),\n",
       "  Message('control_change', channel=9, control=4, value=77, time=42),\n",
       "  Message('note_on', channel=9, note=44, velocity=52, time=1),\n",
       "  Message('note_on', channel=9, note=51, velocity=39, time=33),\n",
       "  Message('control_change', channel=9, control=4, value=90, time=1),\n",
       "  Message('note_off', channel=9, note=44, velocity=64, time=77),\n",
       "  Message('note_on', channel=9, note=38, velocity=37, time=25),\n",
       "  Message('note_off', channel=9, note=51, velocity=64, time=8),\n",
       "  Message('control_change', channel=9, control=4, value=42, time=26),\n",
       "  Message('note_on', channel=9, note=38, velocity=41, time=3),\n",
       "  Message('note_off', channel=9, note=38, velocity=64, time=0),\n",
       "  Message('control_change', channel=9, control=4, value=0, time=29),\n",
       "  Message('note_on', channel=9, note=38, velocity=33, time=20),\n",
       "  Message('note_off', channel=9, note=38, velocity=64, time=0),\n",
       "  Message('note_off', channel=9, note=38, velocity=64, time=26),\n",
       "  Message('control_change', channel=9, control=4, value=78, time=1),\n",
       "  Message('note_on', channel=9, note=44, velocity=72, time=0),\n",
       "  Message('note_on', channel=9, note=36, velocity=57, time=13),\n",
       "  Message('note_on', channel=9, note=51, velocity=45, time=1),\n",
       "  Message('note_on', channel=9, note=38, velocity=23, time=9),\n",
       "  Message('control_change', channel=9, control=4, value=90, time=12),\n",
       "  Message('note_off', channel=9, note=38, velocity=64, time=1),\n",
       "  Message('note_off', channel=9, note=44, velocity=64, time=76),\n",
       "  Message('note_off', channel=9, note=36, velocity=64, time=12),\n",
       "  Message('note_off', channel=9, note=51, velocity=64, time=0),\n",
       "  Message('control_change', channel=9, control=4, value=76, time=34),\n",
       "  Message('control_change', channel=9, control=4, value=49, time=30),\n",
       "  Message('control_change', channel=9, control=4, value=79, time=31),\n",
       "  Message('note_on', channel=9, note=44, velocity=22, time=1),\n",
       "  Message('note_on', channel=9, note=36, velocity=62, time=29),\n",
       "  Message('control_change', channel=9, control=4, value=90, time=6),\n",
       "  Message('note_on', channel=9, note=51, velocity=45, time=2),\n",
       "  Message('note_off', channel=9, note=44, velocity=64, time=74),\n",
       "  Message('note_off', channel=9, note=36, velocity=64, time=30),\n",
       "  Message('note_off', channel=9, note=51, velocity=64, time=7),\n",
       "  Message('control_change', channel=9, control=4, value=57, time=16),\n",
       "  Message('control_change', channel=9, control=4, value=0, time=31),\n",
       "  Message('control_change', channel=9, control=4, value=78, time=61),\n",
       "  Message('note_on', channel=9, note=44, velocity=80, time=1),\n",
       "  Message('note_on', channel=9, note=37, velocity=88, time=17),\n",
       "  Message('note_on', channel=9, note=51, velocity=50, time=4),\n",
       "  Message('control_change', channel=9, control=4, value=90, time=14),\n",
       "  Message('note_off', channel=9, note=44, velocity=64, time=77),\n",
       "  Message('note_off', channel=9, note=37, velocity=64, time=16),\n",
       "  Message('note_off', channel=9, note=51, velocity=64, time=5),\n",
       "  Message('control_change', channel=9, control=4, value=26, time=57),\n",
       "  Message('control_change', channel=9, control=4, value=77, time=38),\n",
       "  Message('note_on', channel=9, note=44, velocity=57, time=0),\n",
       "  Message('control_change', channel=9, control=4, value=90, time=35),\n",
       "  Message('note_on', channel=9, note=51, velocity=36, time=1),\n",
       "  Message('note_off', channel=9, note=44, velocity=64, time=75),\n",
       "  Message('note_on', channel=9, note=38, velocity=86, time=29),\n",
       "  Message('note_off', channel=9, note=51, velocity=64, time=8),\n",
       "  Message('control_change', channel=9, control=4, value=58, time=19),\n",
       "  Message('control_change', channel=9, control=4, value=0, time=34),\n",
       "  Message('note_off', channel=9, note=38, velocity=64, time=50),\n",
       "  Message('control_change', channel=9, control=4, value=78, time=4),\n",
       "  Message('note_on', channel=9, note=44, velocity=75, time=0),\n",
       "  Message('note_on', channel=9, note=51, velocity=49, time=23),\n",
       "  Message('control_change', channel=9, control=4, value=90, time=12),\n",
       "  Message('note_off', channel=9, note=44, velocity=64, time=76),\n",
       "  Message('note_on', channel=9, note=38, velocity=27, time=11),\n",
       "  Message('note_off', channel=9, note=51, velocity=64, time=12),\n",
       "  Message('control_change', channel=9, control=4, value=26, time=48),\n",
       "  Message('control_change', channel=9, control=4, value=77, time=41),\n",
       "  Message('note_on', channel=9, note=44, velocity=57, time=1),\n",
       "  Message('note_off', channel=9, note=38, velocity=64, time=10),\n",
       "  Message('note_on', channel=9, note=36, velocity=66, time=21),\n",
       "  Message('note_on', channel=9, note=51, velocity=47, time=2),\n",
       "  Message('control_change', channel=9, control=4, value=90, time=2),\n",
       "  Message('note_off', channel=9, note=44, velocity=64, time=76),\n",
       "  Message('note_off', channel=9, note=36, velocity=64, time=31),\n",
       "  Message('note_off', channel=9, note=51, velocity=64, time=2),\n",
       "  Message('control_change', channel=9, control=4, value=74, time=3),\n",
       "  Message('control_change', channel=9, control=4, value=0, time=36),\n",
       "  Message('control_change', channel=9, control=4, value=78, time=58),\n",
       "  Message('note_on', channel=9, note=44, velocity=77, time=0),\n",
       "  Message('note_on', channel=9, note=51, velocity=39, time=21),\n",
       "  Message('control_change', channel=9, control=4, value=90, time=15),\n",
       "  Message('note_off', channel=9, note=44, velocity=64, time=76),\n",
       "  Message('note_off', channel=9, note=51, velocity=64, time=20),\n",
       "  Message('control_change', channel=9, control=4, value=26, time=60),\n",
       "  Message('control_change', channel=9, control=4, value=78, time=38),\n",
       "  Message('note_on', channel=9, note=44, velocity=52, time=1),\n",
       "  Message('note_on', channel=9, note=51, velocity=51, time=28),\n",
       "  Message('control_change', channel=9, control=4, value=90, time=7),\n",
       "  Message('note_on', channel=9, note=38, velocity=94, time=4),\n",
       "  Message('note_off', channel=9, note=44, velocity=64, time=73),\n",
       "  Message('note_off', channel=9, note=51, velocity=64, time=27),\n",
       "  Message('note_off', channel=9, note=38, velocity=64, time=10),\n",
       "  Message('control_change', channel=9, control=4, value=57, time=5),\n",
       "  Message('control_change', channel=9, control=4, value=0, time=33),\n",
       "  Message('control_change', channel=9, control=4, value=78, time=64),\n",
       "  Message('note_on', channel=9, note=44, velocity=77, time=0),\n",
       "  Message('note_on', channel=9, note=51, velocity=43, time=18),\n",
       "  Message('control_change', channel=9, control=4, value=90, time=17),\n",
       "  Message('note_off', channel=9, note=44, velocity=64, time=76),\n",
       "  Message('note_on', channel=9, note=38, velocity=38, time=4),\n",
       "  Message('note_off', channel=9, note=51, velocity=64, time=14),\n",
       "  Message('control_change', channel=9, control=4, value=42, time=37),\n",
       "  Message('control_change', channel=9, control=4, value=5, time=37),\n",
       "  Message('note_off', channel=9, note=38, velocity=64, time=23),\n",
       "  Message('control_change', channel=9, control=4, value=79, time=7),\n",
       "  Message('note_on', channel=9, note=44, velocity=60, time=1),\n",
       "  Message('note_on', channel=9, note=51, velocity=41, time=7),\n",
       "  Message('note_on', channel=9, note=36, velocity=45, time=4),\n",
       "  Message('control_change', channel=9, control=4, value=90, time=23),\n",
       "  Message('note_off', channel=9, note=44, velocity=64, time=76),\n",
       "  Message('note_off', channel=9, note=51, velocity=64, time=9),\n",
       "  Message('note_off', channel=9, note=36, velocity=64, time=3),\n",
       "  Message('note_on', channel=9, note=36, velocity=48, time=14),\n",
       "  Message('control_change', channel=9, control=4, value=57, time=9),\n",
       "  Message('control_change', channel=9, control=4, value=0, time=34),\n",
       "  Message('note_on', channel=9, note=51, velocity=53, time=67),\n",
       "  Message('note_off', channel=9, note=36, velocity=64, time=1),\n",
       "  Message('note_on', channel=9, note=38, velocity=99, time=5),\n",
       "  Message('control_change', channel=9, control=4, value=78, time=5),\n",
       "  Message('note_on', channel=9, note=44, velocity=80, time=1),\n",
       "  Message('control_change', channel=9, control=4, value=90, time=35),\n",
       "  Message('note_off', channel=9, note=51, velocity=64, time=65),\n",
       "  Message('note_off', channel=9, note=38, velocity=64, time=5),\n",
       "  Message('note_off', channel=9, note=44, velocity=64, time=7),\n",
       "  Message('control_change', channel=9, control=4, value=59, time=47),\n",
       "  Message('control_change', channel=9, control=4, value=13, time=30),\n",
       "  Message('control_change', channel=9, control=4, value=77, time=37),\n",
       "  Message('note_on', channel=9, note=44, velocity=55, time=0),\n",
       "  Message('note_on', channel=9, note=51, velocity=45, time=3),\n",
       "  Message('control_change', channel=9, control=4, value=90, time=32),\n",
       "  Message('note_on', channel=9, note=38, velocity=88, time=73),\n",
       "  Message('note_off', channel=9, note=44, velocity=64, time=4),\n",
       "  Message('note_off', channel=9, note=51, velocity=64, time=2),\n",
       "  Message('control_change', channel=9, control=4, value=73, time=29),\n",
       "  Message('control_change', channel=9, control=4, value=0, time=35),\n",
       "  Message('note_off', channel=9, note=38, velocity=64, time=41),\n",
       "  Message('note_on', channel=9, note=51, velocity=58, time=20),\n",
       "  Message('control_change', channel=9, control=4, value=77, time=13),\n",
       "  Message('note_on', channel=9, note=44, velocity=80, time=0),\n",
       "  Message('control_change', channel=9, control=4, value=90, time=36),\n",
       "  Message('note_off', channel=9, note=51, velocity=64, time=63),\n",
       "  Message('note_off', channel=9, note=44, velocity=64, time=13),\n",
       "  Message('note_on', channel=9, note=38, velocity=37, time=1),\n",
       "  Message('note_on', channel=9, note=38, velocity=20, time=54),\n",
       "  Message('note_off', channel=9, note=38, velocity=64, time=0),\n",
       "  Message('control_change', channel=9, control=4, value=43, time=7),\n",
       "  Message('control_change', channel=9, control=4, value=78, time=41),\n",
       "  Message('note_on', channel=9, note=44, velocity=40, time=1),\n",
       "  Message('note_on', channel=9, note=52, velocity=61, time=7),\n",
       "  Message('note_on', channel=9, note=36, velocity=71, time=1),\n",
       "  Message('note_off', channel=9, note=38, velocity=64, time=2),\n",
       "  Message('control_change', channel=9, control=4, value=90, time=24),\n",
       "  Message('note_off', channel=9, note=44, velocity=64, time=77),\n",
       "  Message('note_off', channel=9, note=52, velocity=64, time=7),\n",
       "  Message('note_off', channel=9, note=36, velocity=64, time=2),\n",
       "  Message('control_change', channel=9, control=4, value=58, time=28),\n",
       "  Message('control_change', channel=9, control=4, value=0, time=31),\n",
       "  Message('control_change', channel=9, control=4, value=78, time=65),\n",
       "  Message('note_on', channel=9, note=44, velocity=80, time=0),\n",
       "  Message('note_on', channel=9, note=51, velocity=49, time=3),\n",
       "  Message('control_change', channel=9, control=4, value=90, time=32),\n",
       "  Message('note_off', channel=9, note=44, velocity=64, time=76),\n",
       "  Message('note_off', channel=9, note=51, velocity=64, time=3),\n",
       "  Message('control_change', channel=9, control=4, value=74, time=35),\n",
       "  Message('control_change', channel=9, control=4, value=11, time=37),\n",
       "  Message('control_change', channel=9, control=4, value=79, time=37),\n",
       "  Message('note_on', channel=9, note=44, velocity=62, time=0),\n",
       "  Message('note_on', channel=9, note=38, velocity=105, time=17),\n",
       "  Message('note_on', channel=9, note=51, velocity=56, time=1),\n",
       "  Message('control_change', channel=9, control=4, value=90, time=17),\n",
       "  Message('note_off', channel=9, note=44, velocity=64, time=77),\n",
       "  Message('note_off', channel=9, note=38, velocity=64, time=16),\n",
       "  Message('note_off', channel=9, note=51, velocity=64, time=2),\n",
       "  Message('control_change', channel=9, control=4, value=57, time=14),\n",
       "  Message('control_change', channel=9, control=4, value=0, time=36),\n",
       "  Message('control_change', channel=9, control=4, value=77, time=57),\n",
       "  Message('note_on', channel=9, note=44, velocity=77, time=0),\n",
       "  Message('note_on', channel=9, note=51, velocity=51, time=31),\n",
       "  Message('control_change', channel=9, control=4, value=90, time=5),\n",
       "  Message('note_on', channel=9, note=36, velocity=50, time=1),\n",
       "  Message('note_off', channel=9, note=44, velocity=64, time=76),\n",
       "  Message('note_on', channel=9, note=38, velocity=34, time=2),\n",
       "  Message('note_off', channel=9, note=51, velocity=64, time=27),\n",
       "  Message('note_off', channel=9, note=36, velocity=64, time=7),\n",
       "  Message('control_change', channel=9, control=4, value=58, time=11),\n",
       "  Message('control_change', channel=9, control=4, value=13, time=30),\n",
       "  Message('control_change', channel=9, control=4, value=78, time=34),\n",
       "  Message('note_on', channel=9, note=44, velocity=55, time=1),\n",
       "  Message('note_off', channel=9, note=38, velocity=64, time=1),\n",
       "  Message('control_change', channel=9, control=4, value=90, time=33),\n",
       "  Message('note_on', channel=9, note=51, velocity=45, time=0),\n",
       "  Message('note_on', channel=9, note=36, velocity=63, time=19),\n",
       "  Message('note_off', channel=9, note=44, velocity=64, time=59),\n",
       "  Message('note_off', channel=9, note=51, velocity=64, time=34),\n",
       "  Message('control_change', channel=9, control=4, value=57, time=12),\n",
       "  Message('note_off', channel=9, note=36, velocity=64, time=7),\n",
       "  Message('control_change', channel=9, control=4, value=0, time=25),\n",
       "  Message('control_change', channel=9, control=4, value=78, time=68),\n",
       "  Message('note_on', channel=9, note=44, velocity=80, time=0),\n",
       "  Message('control_change', channel=9, control=4, value=90, time=35),\n",
       "  Message('note_on', channel=9, note=51, velocity=50, time=1),\n",
       "  Message('note_on', channel=9, note=38, velocity=101, time=8),\n",
       "  Message('note_off', channel=9, note=44, velocity=64, time=68),\n",
       "  Message('note_off', channel=9, note=51, velocity=64, time=35),\n",
       "  Message('note_off', channel=9, note=38, velocity=64, time=9),\n",
       "  Message('control_change', channel=9, control=4, value=25, time=33),\n",
       "  Message('control_change', channel=9, control=4, value=79, time=43),\n",
       "  Message('note_on', channel=9, note=44, velocity=45, time=0),\n",
       "  Message('control_change', channel=9, control=4, value=90, time=36),\n",
       "  Message('note_on', channel=9, note=51, velocity=48, time=29),\n",
       "  Message('note_off', channel=9, note=44, velocity=64, time=47),\n",
       "  Message('control_change', channel=9, control=4, value=57, time=59),\n",
       "  Message('note_off', channel=9, note=51, velocity=64, time=6),\n",
       "  Message('note_on', channel=9, note=38, velocity=92, time=7),\n",
       "  Message('control_change', channel=9, control=4, value=0, time=23),\n",
       "  Message('control_change', channel=9, control=4, value=78, time=65),\n",
       "  Message('note_on', channel=9, note=44, velocity=77, time=0),\n",
       "  Message('note_off', channel=9, note=38, velocity=64, time=23),\n",
       "  Message('note_on', channel=9, note=51, velocity=49, time=10),\n",
       "  Message('control_change', channel=9, control=4, value=90, time=2),\n",
       "  Message('note_off', channel=9, note=44, velocity=64, time=76),\n",
       "  Message('note_off', channel=9, note=51, velocity=64, time=34),\n",
       "  Message('control_change', channel=9, control=4, value=74, time=7),\n",
       "  Message('note_on', channel=9, note=38, velocity=33, time=8),\n",
       "  Message('control_change', channel=9, control=4, value=11, time=30),\n",
       "  Message('control_change', channel=9, control=4, value=77, time=37),\n",
       "  Message('note_on', channel=9, note=44, velocity=50, time=0),\n",
       "  Message('note_on', channel=9, note=36, velocity=49, time=1),\n",
       "  Message('control_change', channel=9, control=4, value=90, time=34),\n",
       "  Message('note_off', channel=9, note=38, velocity=64, time=10),\n",
       "  Message('note_on', channel=9, note=51, velocity=38, time=4),\n",
       "  Message('note_off', channel=9, note=36, velocity=64, time=63),\n",
       "  Message('note_off', channel=9, note=44, velocity=64, time=0),\n",
       "  Message('note_on', channel=9, note=36, velocity=48, time=12),\n",
       "  Message('control_change', channel=9, control=4, value=74, time=17),\n",
       "  Message('note_off', channel=9, note=51, velocity=64, time=19),\n",
       "  Message('control_change', channel=9, control=4, value=0, time=18),\n",
       "  Message('note_off', channel=9, note=36, velocity=64, time=57),\n",
       "  Message('control_change', channel=9, control=4, value=77, time=19),\n",
       "  Message('note_on', channel=9, note=44, velocity=87, time=1),\n",
       "  Message('note_on', channel=9, note=38, velocity=100, time=7),\n",
       "  Message('note_on', channel=9, note=51, velocity=62, time=10),\n",
       "  Message('control_change', channel=9, control=4, value=90, time=17),\n",
       "  Message('note_off', channel=9, note=44, velocity=64, time=77),\n",
       "  Message('note_off', channel=9, note=38, velocity=64, time=7),\n",
       "  Message('note_off', channel=9, note=51, velocity=64, time=10),\n",
       "  Message('control_change', channel=9, control=4, value=40, time=36),\n",
       "  Message('control_change', channel=9, control=4, value=1, time=35),\n",
       "  Message('control_change', channel=9, control=4, value=78, time=34),\n",
       "  Message('note_on', channel=9, note=44, velocity=65, time=0),\n",
       "  Message('control_change', channel=9, control=4, value=90, time=35),\n",
       "  Message('note_on', channel=9, note=51, velocity=46, time=0),\n",
       "  Message('note_off', channel=9, note=44, velocity=64, time=77),\n",
       "  Message('control_change', channel=9, control=4, value=57, time=33),\n",
       "  Message('note_on', channel=9, note=38, velocity=37, time=1),\n",
       "  Message('note_off', channel=9, note=51, velocity=64, time=0),\n",
       "  Message('control_change', channel=9, control=4, value=0, time=32),\n",
       "  Message('note_on', channel=9, note=38, velocity=33, time=6),\n",
       "  Message('note_off', channel=9, note=38, velocity=64, time=0),\n",
       "  Message('note_on', channel=9, note=38, velocity=30, time=26),\n",
       "  Message('note_off', channel=9, note=38, velocity=64, time=0),\n",
       "  Message('control_change', channel=9, control=4, value=77, time=38),\n",
       "  Message('note_on', channel=9, note=44, velocity=80, time=0),\n",
       "  Message('note_on', channel=9, note=38, velocity=23, time=6),\n",
       "  Message('note_off', channel=9, note=38, velocity=64, time=0),\n",
       "  Message('note_off', channel=9, note=38, velocity=64, time=4),\n",
       "  Message('note_on', channel=9, note=51, velocity=60, time=18),\n",
       "  Message('note_on', channel=9, note=36, velocity=55, time=1),\n",
       "  Message('control_change', channel=9, control=4, value=90, time=7),\n",
       "  Message('note_off', channel=9, note=44, velocity=64, time=76),\n",
       "  Message('note_off', channel=9, note=36, velocity=64, time=28),\n",
       "  Message('note_off', channel=9, note=51, velocity=64, time=0),\n",
       "  Message('control_change', channel=9, control=4, value=58, time=22),\n",
       "  Message('control_change', channel=9, control=4, value=13, time=33),\n",
       "  Message('control_change', channel=9, control=4, value=78, time=34),\n",
       "  Message('note_on', channel=9, note=44, velocity=52, time=1),\n",
       "  Message('note_on', channel=9, note=51, velocity=47, time=26),\n",
       "  Message('note_on', channel=9, note=36, velocity=63, time=1),\n",
       "  Message('control_change', channel=9, control=4, value=90, time=8),\n",
       "  Message('note_off', channel=9, note=44, velocity=64, time=77),\n",
       "  Message('note_off', channel=9, note=36, velocity=64, time=25),\n",
       "  Message('note_off', channel=9, note=51, velocity=64, time=0),\n",
       "  Message('control_change', channel=9, control=4, value=57, time=14),\n",
       "  Message('control_change', channel=9, control=4, value=0, time=32),\n",
       "  Message('control_change', channel=9, control=4, value=78, time=74),\n",
       "  Message('note_on', channel=9, note=44, velocity=82, time=1),\n",
       "  Message('note_on', channel=9, note=38, velocity=106, time=21),\n",
       "  Message('note_on', channel=9, note=51, velocity=59, time=0),\n",
       "  Message('control_change', channel=9, control=4, value=90, time=13),\n",
       "  Message('note_off', channel=9, note=44, velocity=64, time=77),\n",
       "  Message('note_off', channel=9, note=38, velocity=64, time=21),\n",
       "  Message('note_off', channel=9, note=51, velocity=64, time=0),\n",
       "  Message('control_change', channel=9, control=4, value=75, time=25),\n",
       "  Message('control_change', channel=9, control=4, value=28, time=35),\n",
       "  Message('control_change', channel=9, control=4, value=78, time=33),\n",
       "  Message('note_on', channel=9, note=44, velocity=40, time=0),\n",
       "  Message('control_change', channel=9, control=4, value=90, time=36),\n",
       "  Message('note_on', channel=9, note=51, velocity=37, time=14),\n",
       "  Message('note_off', channel=9, note=44, velocity=64, time=62),\n",
       "  Message('control_change', channel=9, control=4, value=74, time=23),\n",
       "  Message('note_on', channel=9, note=38, velocity=103, time=21),\n",
       "  Message('note_off', channel=9, note=51, velocity=64, time=5),\n",
       "  Message('control_change', channel=9, control=4, value=0, time=9),\n",
       "  Message('control_change', channel=9, control=4, value=77, time=81),\n",
       "  Message('note_on', channel=9, note=44, velocity=72, time=0),\n",
       "  Message('note_off', channel=9, note=38, velocity=64, time=16),\n",
       "  Message('control_change', channel=9, control=4, value=90, time=20),\n",
       "  Message('note_on', channel=9, note=51, velocity=53, time=6),\n",
       "  Message('note_off', channel=9, note=44, velocity=64, time=70),\n",
       "  Message('note_off', channel=9, note=51, velocity=64, time=42),\n",
       "  Message('note_on', channel=9, note=38, velocity=33, time=4),\n",
       "  Message('control_change', channel=9, control=4, value=74, time=1),\n",
       "  Message('control_change', channel=9, control=4, value=28, time=33),\n",
       "  Message('control_change', channel=9, control=4, value=78, time=30),\n",
       "  Message('note_on', channel=9, note=44, velocity=42, time=1),\n",
       "  Message('note_on', channel=9, note=36, velocity=46, time=17),\n",
       "  Message('control_change', channel=9, control=4, value=90, time=17),\n",
       "  Message('note_off', channel=9, note=38, velocity=64, time=12),\n",
       "  Message('note_on', channel=9, note=51, velocity=42, time=12),\n",
       "  Message('note_off', channel=9, note=44, velocity=64, time=53),\n",
       "  Message('note_off', channel=9, note=36, velocity=64, time=18),\n",
       "  Message('control_change', channel=9, control=4, value=57, time=21),\n",
       "  Message('note_on', channel=9, note=36, velocity=59, time=7),\n",
       "  Message('note_off', channel=9, note=51, velocity=64, time=12),\n",
       "  Message('control_change', channel=9, control=4, value=0, time=15),\n",
       "  Message('control_change', channel=9, control=4, value=78, time=72),\n",
       "  Message('note_on', channel=9, note=44, velocity=82, time=1),\n",
       "  Message('note_off', channel=9, note=36, velocity=64, time=11),\n",
       "  Message('note_on', channel=9, note=38, velocity=103, time=16),\n",
       "  Message('control_change', channel=9, control=4, value=90, time=8),\n",
       "  Message('note_on', channel=9, note=51, velocity=63, time=3),\n",
       "  Message('note_off', channel=9, note=44, velocity=64, time=73),\n",
       "  Message('note_off', channel=9, note=38, velocity=64, time=28),\n",
       "  Message('note_off', channel=9, note=51, velocity=64, time=10),\n",
       "  Message('control_change', channel=9, control=4, value=26, time=35),\n",
       "  Message('control_change', channel=9, control=4, value=78, time=43),\n",
       "  Message('note_on', channel=9, note=44, velocity=40, time=0),\n",
       "  Message('control_change', channel=9, control=4, value=90, time=35),\n",
       "  Message('note_on', channel=9, note=51, velocity=41, time=11),\n",
       "  Message('note_off', channel=9, note=44, velocity=64, time=67),\n",
       "  Message('note_on', channel=9, note=38, velocity=36, time=43),\n",
       "  Message('note_off', channel=9, note=51, velocity=64, time=2),\n",
       "  Message('control_change', channel=9, control=4, value=57, time=4),\n",
       "  Message('control_change', channel=9, control=4, value=0, time=34),\n",
       "  Message('note_on', channel=9, note=38, velocity=32, time=4),\n",
       "  Message('note_off', channel=9, note=38, velocity=64, time=0),\n",
       "  Message('note_on', channel=9, note=38, velocity=33, time=27),\n",
       "  Message('note_off', channel=9, note=38, velocity=64, time=0),\n",
       "  Message('note_off', channel=9, note=38, velocity=64, time=40),\n",
       "  Message('control_change', channel=9, control=4, value=76, time=2),\n",
       "  Message('note_on', channel=9, note=44, velocity=77, time=0),\n",
       "  Message('note_on', channel=9, note=36, velocity=62, time=20),\n",
       "  Message('note_on', channel=9, note=51, velocity=60, time=0),\n",
       "  Message('control_change', channel=9, control=4, value=90, time=15),\n",
       "  Message('note_off', channel=9, note=44, velocity=64, time=77),\n",
       "  Message('note_off', channel=9, note=36, velocity=64, time=19),\n",
       "  Message('note_off', channel=9, note=51, velocity=64, time=0),\n",
       "  Message('control_change', channel=9, control=4, value=58, time=27),\n",
       "  Message('control_change', channel=9, control=4, value=14, time=34),\n",
       "  Message('control_change', channel=9, control=4, value=78, time=36),\n",
       "  Message('note_on', channel=9, note=44, velocity=50, time=1),\n",
       "  Message('note_on', channel=9, note=36, velocity=59, time=27),\n",
       "  Message('note_on', channel=9, note=51, velocity=49, time=5),\n",
       "  Message('control_change', channel=9, control=4, value=90, time=3),\n",
       "  Message('note_off', channel=9, note=44, velocity=64, time=76),\n",
       "  Message('note_off', channel=9, note=36, velocity=64, time=27),\n",
       "  Message('note_off', channel=9, note=51, velocity=64, time=5),\n",
       "  Message('control_change', channel=9, control=4, value=57, time=12),\n",
       "  Message('control_change', channel=9, control=4, value=0, time=34),\n",
       "  Message('control_change', channel=9, control=4, value=77, time=68),\n",
       "  Message('note_on', channel=9, note=44, velocity=82, time=1),\n",
       "  Message('note_on', channel=9, note=38, velocity=109, time=19),\n",
       "  Message('note_on', channel=9, note=51, velocity=63, time=4),\n",
       "  Message('control_change', channel=9, control=4, value=90, time=11),\n",
       "  Message('note_off', channel=9, note=44, velocity=64, time=77),\n",
       "  Message('note_off', channel=9, note=38, velocity=64, time=20),\n",
       "  Message('note_off', channel=9, note=51, velocity=64, time=3),\n",
       "  Message('control_change', channel=9, control=4, value=74, time=18),\n",
       "  Message('control_change', channel=9, control=4, value=10, time=33),\n",
       "  Message('control_change', channel=9, control=4, value=77, time=41),\n",
       "  Message('note_on', channel=9, note=44, velocity=62, time=1),\n",
       "  Message('control_change', channel=9, control=4, value=90, time=35),\n",
       "  Message('note_on', channel=9, note=51, velocity=40, time=8),\n",
       "  Message('note_off', channel=9, note=44, velocity=64, time=68),\n",
       "  Message('control_change', channel=9, control=4, value=74, time=34),\n",
       "  Message('note_on', channel=9, note=38, velocity=102, time=1),\n",
       "  Message('note_off', channel=9, note=51, velocity=64, time=8),\n",
       "  Message('control_change', channel=9, control=4, value=0, time=26),\n",
       "  Message('control_change', channel=9, control=4, value=76, time=71),\n",
       "  Message('note_on', channel=9, note=44, velocity=77, time=1),\n",
       "  Message('note_off', channel=9, note=38, velocity=64, time=6),\n",
       "  Message('note_on', channel=9, note=51, velocity=56, time=21),\n",
       "  Message('control_change', channel=9, control=4, value=90, time=8),\n",
       "  Message('note_off', channel=9, note=44, velocity=64, time=77),\n",
       "  Message('note_off', channel=9, note=51, velocity=64, time=26),\n",
       "  Message('note_on', channel=9, note=38, velocity=22, time=10),\n",
       "  Message('control_change', channel=9, control=4, value=73, time=10),\n",
       "  Message('control_change', channel=9, control=4, value=10, time=37),\n",
       "  Message('control_change', channel=9, control=4, value=77, time=30),\n",
       "  Message('note_on', channel=9, note=44, velocity=62, time=0),\n",
       "  Message('note_on', channel=9, note=36, velocity=73, time=25),\n",
       "  Message('note_off', channel=9, note=38, velocity=64, time=9),\n",
       "  Message('control_change', channel=9, control=4, value=90, time=1),\n",
       "  Message('note_on', channel=9, note=51, velocity=52, time=3),\n",
       "  Message('note_off', channel=9, note=44, velocity=64, time=74),\n",
       "  Message('note_off', channel=9, note=36, velocity=64, time=24),\n",
       "  Message('note_off', channel=9, note=51, velocity=64, time=12),\n",
       "  Message('control_change', channel=9, control=4, value=58, time=3),\n",
       "  Message('control_change', channel=9, control=4, value=0, time=32),\n",
       "  Message('control_change', channel=9, control=4, value=78, time=65),\n",
       "  Message('note_on', channel=9, note=44, velocity=77, time=1),\n",
       "  Message('note_on', channel=9, note=51, velocity=49, time=20),\n",
       "  Message('control_change', channel=9, control=4, value=90, time=14),\n",
       "  Message('note_off', channel=9, note=44, velocity=64, time=77),\n",
       "  Message('note_off', channel=9, note=51, velocity=64, time=20),\n",
       "  Message('control_change', channel=9, control=4, value=26, time=60),\n",
       "  Message('control_change', channel=9, control=4, value=79, time=36),\n",
       "  Message('note_on', channel=9, note=44, velocity=50, time=0),\n",
       "  Message('note_on', channel=9, note=38, velocity=115, time=27),\n",
       "  Message('note_on', channel=9, note=51, velocity=67, time=7),\n",
       "  Message('control_change', channel=9, control=4, value=90, time=2),\n",
       "  Message('note_off', channel=9, note=44, velocity=64, time=76),\n",
       "  Message('note_off', channel=9, note=38, velocity=64, time=26),\n",
       "  Message('note_off', channel=9, note=51, velocity=64, time=7),\n",
       "  Message('control_change', channel=9, control=4, value=56, time=12),\n",
       "  Message('control_change', channel=9, control=4, value=0, time=31),\n",
       "  Message('control_change', channel=9, control=4, value=77, time=64),\n",
       "  Message('note_on', channel=9, note=44, velocity=77, time=0),\n",
       "  Message('note_on', channel=9, note=51, velocity=48, time=17),\n",
       "  Message('control_change', channel=9, control=4, value=90, time=19),\n",
       "  Message('note_off', channel=9, note=44, velocity=64, time=77),\n",
       "  Message('note_on', channel=9, note=38, velocity=38, time=15),\n",
       "  Message('note_off', channel=9, note=51, velocity=64, time=0),\n",
       "  Message('control_change', channel=9, control=4, value=25, time=66),\n",
       "  Message('control_change', channel=9, control=4, value=78, time=31),\n",
       "  Message('note_on', channel=9, note=44, velocity=47, time=1),\n",
       "  Message('note_on', channel=9, note=51, velocity=39, time=11),\n",
       "  Message('note_off', channel=9, note=38, velocity=64, time=2),\n",
       "  Message('note_on', channel=9, note=36, velocity=42, time=5),\n",
       "  Message('control_change', channel=9, control=4, value=90, time=17),\n",
       "  Message('note_off', channel=9, note=44, velocity=64, time=77),\n",
       "  Message('note_off', channel=9, note=51, velocity=64, time=10),\n",
       "  Message('note_off', channel=9, note=36, velocity=64, time=8),\n",
       "  Message('note_on', channel=9, note=51, velocity=39, time=9),\n",
       "  Message('control_change', channel=9, control=4, value=58, time=5),\n",
       "  Message('note_on', channel=9, note=36, velocity=55, time=6),\n",
       "  Message('control_change', channel=9, control=4, value=0, time=25),\n",
       "  Message('control_change', channel=9, control=4, value=76, time=70),\n",
       "  Message('note_on', channel=9, note=44, velocity=75, time=1),\n",
       "  Message('note_off', channel=9, note=51, velocity=64, time=4),\n",
       "  Message('note_on', channel=9, note=38, velocity=102, time=7),\n",
       "  Message('note_on', channel=9, note=51, velocity=56, time=4),\n",
       "  Message('note_off', channel=9, note=36, velocity=64, time=0),\n",
       "  Message('control_change', channel=9, control=4, value=90, time=19),\n",
       "  Message('note_off', channel=9, note=44, velocity=64, time=77),\n",
       "  Message('note_off', channel=9, note=38, velocity=64, time=12),\n",
       "  Message('note_off', channel=9, note=51, velocity=64, time=3),\n",
       "  Message('control_change', channel=9, control=4, value=26, time=60),\n",
       "  Message('control_change', channel=9, control=4, value=78, time=34),\n",
       "  Message('note_on', channel=9, note=44, velocity=37, time=1),\n",
       "  Message('control_change', channel=9, control=4, value=90, time=35),\n",
       "  Message('note_on', channel=9, note=51, velocity=46, time=6),\n",
       "  Message('note_off', channel=9, note=44, velocity=64, time=71),\n",
       "  Message('note_on', channel=9, note=38, velocity=103, time=29),\n",
       "  Message('note_off', channel=9, note=51, velocity=64, time=11),\n",
       "  Message('control_change', channel=9, control=4, value=58, time=14),\n",
       "  Message('control_change', channel=9, control=4, value=0, time=36),\n",
       "  Message('control_change', channel=9, control=4, value=78, time=50),\n",
       "  Message('note_on', channel=9, note=44, velocity=75, time=0),\n",
       "  Message('note_off', channel=9, note=38, velocity=64, time=0),\n",
       "  Message('note_on', channel=9, note=51, velocity=50, time=23),\n",
       "  Message('control_change', channel=9, control=4, value=90, time=13),\n",
       "  Message('note_off', channel=9, note=44, velocity=64, time=77),\n",
       "  Message('note_off', channel=9, note=51, velocity=64, time=21),\n",
       "  Message('note_on', channel=9, note=38, velocity=16, time=15),\n",
       "  Message('control_change', channel=9, control=4, value=58, time=25),\n",
       "  Message('control_change', channel=9, control=4, value=79, time=38),\n",
       "  Message('note_on', channel=9, note=44, velocity=20, time=1),\n",
       "  Message('note_on', channel=9, note=36, velocity=87, time=27),\n",
       "  Message('control_change', channel=9, control=4, value=90, time=7),\n",
       "  Message('note_on', channel=9, note=52, velocity=55, time=3),\n",
       "  Message('note_off', channel=9, note=38, velocity=64, time=11),\n",
       "  Message('note_off', channel=9, note=44, velocity=64, time=63),\n",
       "  Message('note_off', channel=9, note=36, velocity=64, time=28),\n",
       "  Message('note_off', channel=9, note=52, velocity=64, time=9),\n",
       "  Message('control_change', channel=9, control=4, value=74, time=10),\n",
       "  Message('control_change', channel=9, control=4, value=0, time=36),\n",
       "  Message('note_on', channel=9, note=38, velocity=8, time=34),\n",
       "  Message('control_change', channel=9, control=4, value=78, time=30),\n",
       "  Message('note_on', channel=9, note=44, velocity=82, time=0),\n",
       "  Message('note_on', channel=9, note=51, velocity=49, time=23),\n",
       "  Message('control_change', channel=9, control=4, value=90, time=12),\n",
       "  Message('note_off', channel=9, note=38, velocity=64, time=46),\n",
       "  Message('note_off', channel=9, note=44, velocity=64, time=31),\n",
       "  Message('note_off', channel=9, note=51, velocity=64, time=22),\n",
       "  Message('control_change', channel=9, control=4, value=58, time=29),\n",
       "  Message('control_change', channel=9, control=4, value=14, time=31),\n",
       "  Message('control_change', channel=9, control=4, value=78, time=35),\n",
       "  Message('note_on', channel=9, note=44, velocity=57, time=1),\n",
       "  Message('note_on', channel=9, note=38, velocity=105, time=13),\n",
       "  Message('note_on', channel=9, note=51, velocity=52, time=10),\n",
       "  Message('control_change', channel=9, control=4, value=90, time=12),\n",
       "  Message('note_off', channel=9, note=44, velocity=64, time=77),\n",
       "  Message('note_off', channel=9, note=38, velocity=64, time=12),\n",
       "  Message('note_off', channel=9, note=51, velocity=64, time=10),\n",
       "  Message('control_change', channel=9, control=4, value=57, time=14),\n",
       "  Message('control_change', channel=9, control=4, value=0, time=31),\n",
       "  Message('control_change', channel=9, control=4, value=78, time=64),\n",
       "  Message('note_on', channel=9, note=44, velocity=75, time=0),\n",
       "  Message('note_on', channel=9, note=36, velocity=60, time=17),\n",
       "  Message('note_on', channel=9, note=51, velocity=54, time=14),\n",
       "  Message('control_change', channel=9, control=4, value=90, time=4),\n",
       "  Message('note_on', channel=9, note=38, velocity=33, time=54),\n",
       "  Message('note_off', channel=9, note=44, velocity=64, time=23),\n",
       "  Message('note_off', channel=9, note=36, velocity=64, time=16),\n",
       "  Message('note_off', channel=9, note=51, velocity=64, time=15),\n",
       "  Message('control_change', channel=9, control=4, value=58, time=37),\n",
       "  Message('note_off', channel=9, note=38, velocity=64, time=20),\n",
       "  Message('control_change', channel=9, control=4, value=80, time=20),\n",
       "  Message('note_on', channel=9, note=44, velocity=35, time=0),\n",
       "  Message('control_change', channel=9, control=4, value=90, time=35),\n",
       "  Message('note_on', channel=9, note=36, velocity=60, time=2),\n",
       "  Message('note_on', channel=9, note=51, velocity=38, time=8),\n",
       "  Message('note_off', channel=9, note=44, velocity=64, time=66),\n",
       "  Message('note_off', channel=9, note=36, velocity=64, time=38),\n",
       "  Message('note_off', channel=9, note=51, velocity=64, time=8),\n",
       "  Message('control_change', channel=9, control=4, value=58, time=15),\n",
       "  Message('control_change', channel=9, control=4, value=0, time=34),\n",
       "  Message('control_change', channel=9, control=4, value=78, time=64),\n",
       "  Message('note_on', channel=9, note=44, velocity=85, time=0),\n",
       "  Message('note_on', channel=9, note=38, velocity=97, time=12),\n",
       "  Message('note_on', channel=9, note=51, velocity=70, time=3),\n",
       "  Message('control_change', channel=9, control=4, value=90, time=20),\n",
       "  Message('note_off', channel=9, note=44, velocity=64, time=77),\n",
       "  Message('note_off', channel=9, note=38, velocity=64, time=12),\n",
       "  Message('note_off', channel=9, note=51, velocity=64, time=2),\n",
       "  Message('control_change', channel=9, control=4, value=26, time=61),\n",
       "  Message('control_change', channel=9, control=4, value=79, time=42),\n",
       "  Message('note_on', channel=9, note=44, velocity=57, time=0),\n",
       "  Message('control_change', channel=9, control=4, value=90, time=35),\n",
       "  Message('note_on', channel=9, note=51, velocity=38, time=0),\n",
       "  Message('note_off', channel=9, note=44, velocity=64, time=76),\n",
       "  Message('control_change', channel=9, control=4, value=74, time=27),\n",
       "  Message('note_on', channel=9, note=38, velocity=99, time=9),\n",
       "  Message('note_off', channel=9, note=51, velocity=64, time=0),\n",
       "  Message('control_change', channel=9, control=4, value=0, time=23),\n",
       "  Message('control_change', channel=9, control=4, value=78, time=74),\n",
       "  Message('note_on', channel=9, note=44, velocity=72, time=0),\n",
       "  Message('note_off', channel=9, note=38, velocity=64, time=14),\n",
       "  Message('note_on', channel=9, note=51, velocity=52, time=11),\n",
       "  Message('control_change', channel=9, control=4, value=90, time=11),\n",
       "  Message('note_off', channel=9, note=44, velocity=64, time=76),\n",
       "  Message('note_off', channel=9, note=51, velocity=64, time=24),\n",
       "  Message('note_on', channel=9, note=38, velocity=27, time=18),\n",
       "  Message('control_change', channel=9, control=4, value=74, time=1),\n",
       "  Message('control_change', channel=9, control=4, value=33, time=38),\n",
       "  Message('control_change', channel=9, control=4, value=80, time=32),\n",
       "  Message('note_on', channel=9, note=36, velocity=47, time=0),\n",
       "  Message('note_on', channel=9, note=44, velocity=30, time=0),\n",
       "  Message('control_change', channel=9, control=4, value=90, time=35),\n",
       "  Message('note_off', channel=9, note=38, velocity=64, time=5),\n",
       "  Message('note_on', channel=9, note=51, velocity=49, time=4),\n",
       "  Message('note_off', channel=9, note=36, velocity=64, time=67),\n",
       "  Message('note_off', channel=9, note=44, velocity=64, time=0),\n",
       "  Message('control_change', channel=9, control=4, value=74, time=32),\n",
       "  Message('note_off', channel=9, note=51, velocity=64, time=13),\n",
       "  Message('control_change', channel=9, control=4, value=0, time=20),\n",
       "  Message('control_change', channel=9, control=4, value=76, time=76),\n",
       "  Message('note_on', channel=9, note=44, velocity=80, time=1),\n",
       "  Message('note_on', channel=9, note=51, velocity=59, time=28),\n",
       "  Message('note_on', channel=9, note=38, velocity=110, time=6),\n",
       "  Message('control_change', channel=9, control=4, value=90, time=1),\n",
       "  Message('note_off', channel=9, note=44, velocity=64, time=76),\n",
       "  Message('note_off', channel=9, note=51, velocity=64, time=28),\n",
       "  Message('note_off', channel=9, note=38, velocity=64, time=5),\n",
       "  Message('control_change', channel=9, control=4, value=74, time=13),\n",
       "  Message('control_change', channel=9, control=4, value=11, time=35),\n",
       "  Message('control_change', channel=9, control=4, value=78, time=34),\n",
       "  Message('note_on', channel=9, note=44, velocity=57, time=0),\n",
       "  Message('control_change', channel=9, control=4, value=90, time=35),\n",
       "  Message('note_on', channel=9, note=51, velocity=45, time=26),\n",
       "  Message('note_off', channel=9, note=44, velocity=64, time=51),\n",
       "  Message('control_change', channel=9, control=4, value=58, time=44),\n",
       "  Message('note_on', channel=9, note=38, velocity=38, time=6),\n",
       "  Message('note_off', channel=9, note=51, velocity=64, time=10),\n",
       "  Message('control_change', channel=9, control=4, value=0, time=18),\n",
       "  Message('note_on', channel=9, note=38, velocity=38, time=7),\n",
       "  Message('note_off', channel=9, note=38, velocity=64, time=0),\n",
       "  Message('note_on', channel=9, note=38, velocity=25, time=59),\n",
       "  Message('note_off', channel=9, note=38, velocity=64, time=0),\n",
       "  Message('control_change', channel=9, control=4, value=78, time=2),\n",
       "  Message('note_on', channel=9, note=44, velocity=82, time=1),\n",
       "  Message('note_on', channel=9, note=36, velocity=64, time=12),\n",
       "  Message('note_off', channel=9, note=38, velocity=64, time=2),\n",
       "  Message('control_change', channel=9, control=4, value=90, time=20),\n",
       "  Message('note_on', channel=9, note=51, velocity=49, time=1),\n",
       "  Message('note_off', channel=9, note=44, velocity=64, time=76),\n",
       "  Message('note_off', channel=9, note=36, velocity=64, time=12),\n",
       "  Message('note_off', channel=9, note=51, velocity=64, time=23),\n",
       "  Message('control_change', channel=9, control=4, value=75, time=8),\n",
       "  Message('control_change', channel=9, control=4, value=28, time=36),\n",
       "  Message('control_change', channel=9, control=4, value=79, time=33),\n",
       "  Message('note_on', channel=9, note=44, velocity=47, time=1),\n",
       "  Message('control_change', channel=9, control=4, value=90, time=34),\n",
       "  Message('note_on', channel=9, note=51, velocity=44, time=8),\n",
       "  Message('note_on', channel=9, note=36, velocity=125, time=13),\n",
       "  Message('note_off', channel=9, note=44, velocity=64, time=56),\n",
       "  Message('note_off', channel=9, note=51, velocity=64, time=42),\n",
       "  Message('control_change', channel=9, control=4, value=57, time=4),\n",
       "  Message('note_off', channel=9, note=36, velocity=64, time=9),\n",
       "  Message('control_change', channel=9, control=4, value=0, time=25),\n",
       "  Message('control_change', channel=9, control=4, value=78, time=75),\n",
       "  Message('note_on', channel=9, note=44, velocity=80, time=0),\n",
       "  Message('note_on', channel=9, note=51, velocity=56, time=25),\n",
       "  Message('note_on', channel=9, note=38, velocity=90, time=8),\n",
       "  Message('control_change', channel=9, control=4, value=90, time=2),\n",
       "  Message('note_off', channel=9, note=44, velocity=64, time=76),\n",
       "  Message('note_off', channel=9, note=51, velocity=64, time=26),\n",
       "  Message('note_off', channel=9, note=38, velocity=64, time=7),\n",
       "  Message('control_change', channel=9, control=4, value=74, time=13),\n",
       "  Message('control_change', channel=9, control=4, value=26, time=31),\n",
       "  Message('control_change', channel=9, control=4, value=78, time=41),\n",
       "  Message('note_on', channel=9, note=44, velocity=42, time=0),\n",
       "  Message('control_change', channel=9, control=4, value=90, time=35),\n",
       "  Message('note_on', channel=9, note=51, velocity=45, time=2),\n",
       "  Message('note_off', channel=9, note=44, velocity=64, time=75),\n",
       "  Message('note_off', channel=9, note=51, velocity=64, time=36),\n",
       "  Message('control_change', channel=9, control=4, value=57, time=3),\n",
       "  Message('note_on', channel=9, note=38, velocity=100, time=6),\n",
       "  Message('control_change', channel=9, control=4, value=0, time=24),\n",
       "  Message('control_change', channel=9, control=4, value=78, time=77),\n",
       "  Message('note_on', channel=9, note=44, velocity=80, time=0),\n",
       "  Message('note_off', channel=9, note=38, velocity=64, time=9),\n",
       "  Message('note_on', channel=9, note=51, velocity=62, time=4),\n",
       "  Message('control_change', channel=9, control=4, value=90, time=22),\n",
       "  Message('note_off', channel=9, note=44, velocity=64, time=77),\n",
       "  Message('note_off', channel=9, note=51, velocity=64, time=12),\n",
       "  Message('note_on', channel=9, note=38, velocity=36, time=5),\n",
       "  Message('control_change', channel=9, control=4, value=80, time=32),\n",
       "  Message('control_change', channel=9, control=4, value=57, time=31),\n",
       "  Message('control_change', channel=9, control=4, value=80, time=31),\n",
       "  Message('note_on', channel=9, note=44, velocity=20, time=0),\n",
       "  Message('note_off', channel=9, note=38, velocity=64, time=17),\n",
       "  Message('note_on', channel=9, note=36, velocity=51, time=6),\n",
       "  Message('note_on', channel=9, note=51, velocity=48, time=7),\n",
       "  Message('control_change', channel=9, control=4, value=90, time=5),\n",
       "  Message('note_off', channel=9, note=44, velocity=64, time=77),\n",
       "  Message('note_off', channel=9, note=36, velocity=64, time=22),\n",
       "  Message('note_off', channel=9, note=51, velocity=64, time=7),\n",
       "  Message('control_change', channel=9, control=4, value=57, time=3),\n",
       "  Message('note_on', channel=9, note=36, velocity=65, time=4),\n",
       "  Message('control_change', channel=9, control=4, value=0, time=29),\n",
       "  Message('control_change', channel=9, control=4, value=78, time=78),\n",
       "  Message('note_on', channel=9, note=44, velocity=77, time=1),\n",
       "  Message('note_on', channel=9, note=38, velocity=90, time=1),\n",
       "  Message('note_on', channel=9, note=51, velocity=71, time=1),\n",
       "  Message('note_off', channel=9, note=36, velocity=64, time=1),\n",
       "  Message('control_change', channel=9, control=4, value=90, time=31),\n",
       "  Message('note_off', channel=9, note=38, velocity=64, time=77),\n",
       "  Message('note_off', channel=9, note=44, velocity=64, time=0),\n",
       "  Message('note_off', channel=9, note=51, velocity=64, time=2),\n",
       "  Message('control_change', channel=9, control=4, value=60, time=80),\n",
       "  Message('control_change', channel=9, control=4, value=80, time=30),\n",
       "  Message('note_on', channel=9, note=44, velocity=17, time=0),\n",
       "  Message('note_on', channel=9, note=51, velocity=52, time=33),\n",
       "  Message('control_change', channel=9, control=4, value=90, time=3),\n",
       "  Message('note_off', channel=9, note=44, velocity=64, time=76),\n",
       "  Message('note_on', channel=9, note=38, velocity=43, time=21),\n",
       "  Message('note_off', channel=9, note=51, velocity=64, time=12),\n",
       "  Message('control_change', channel=9, control=4, value=58, time=14),\n",
       "  Message('note_on', channel=9, note=38, velocity=46, time=10),\n",
       "  Message('note_off', channel=9, note=38, velocity=64, time=0),\n",
       "  Message('control_change', channel=9, control=4, value=0, time=22),\n",
       "  Message('note_on', channel=9, note=38, velocity=40, time=2),\n",
       "  Message('note_off', channel=9, note=38, velocity=64, time=0),\n",
       "  Message('note_on', channel=9, note=38, velocity=25, time=41),\n",
       "  Message('note_off', channel=9, note=38, velocity=64, time=0),\n",
       "  Message('note_off', channel=9, note=38, velocity=64, time=10),\n",
       "  Message('control_change', channel=9, control=4, value=78, time=14),\n",
       "  Message('note_on', channel=9, note=44, velocity=80, time=0),\n",
       "  Message('note_on', channel=9, note=36, velocity=67, time=4),\n",
       "  Message('note_on', channel=9, note=51, velocity=57, time=11),\n",
       "  Message('control_change', channel=9, control=4, value=90, time=21),\n",
       "  Message('note_off', channel=9, note=44, velocity=64, time=77),\n",
       "  Message('note_off', channel=9, note=36, velocity=64, time=3),\n",
       "  Message('note_off', channel=9, note=51, velocity=64, time=10),\n",
       "  Message('control_change', channel=9, control=4, value=59, time=50),\n",
       "  Message('control_change', channel=9, control=4, value=80, time=40),\n",
       "  Message('note_on', channel=9, note=44, velocity=20, time=0),\n",
       "  Message('control_change', channel=9, control=4, value=90, time=35),\n",
       "  Message('note_on', channel=9, note=51, velocity=49, time=7),\n",
       "  Message('note_on', channel=9, note=36, velocity=65, time=3),\n",
       "  Message('note_off', channel=9, note=44, velocity=64, time=67),\n",
       "  Message('note_off', channel=9, note=51, velocity=64, time=41),\n",
       "  Message('control_change', channel=9, control=4, value=74, time=1),\n",
       "  Message('note_off', channel=9, note=36, velocity=64, time=2),\n",
       "  Message('control_change', channel=9, control=4, value=0, time=33),\n",
       "  Message('control_change', channel=9, control=4, value=78, time=74),\n",
       "  Message('note_on', channel=9, note=44, velocity=80, time=0),\n",
       "  Message('note_on', channel=9, note=38, velocity=101, time=26),\n",
       "  Message('note_on', channel=9, note=51, velocity=60, time=7),\n",
       "  Message('control_change', channel=9, control=4, value=90, time=2),\n",
       "  Message('note_off', channel=9, note=44, velocity=64, time=77),\n",
       "  Message('note_off', channel=9, note=38, velocity=64, time=25),\n",
       "  Message('note_off', channel=9, note=51, velocity=64, time=8),\n",
       "  Message('control_change', channel=9, control=4, value=74, time=17),\n",
       "  Message('control_change', channel=9, control=4, value=28, time=35),\n",
       "  Message('control_change', channel=9, control=4, value=78, time=33),\n",
       "  Message('note_on', channel=9, note=44, velocity=40, time=1),\n",
       "  Message('control_change', channel=9, control=4, value=90, time=35),\n",
       "  Message('note_on', channel=9, note=51, velocity=45, time=6),\n",
       "  Message('note_off', channel=9, note=44, velocity=64, time=70),\n",
       "  Message('note_on', channel=9, note=40, velocity=99, time=35),\n",
       "  Message('note_off', channel=9, note=51, velocity=64, time=7),\n",
       "  Message('control_change', channel=9, control=4, value=58, time=8),\n",
       "  Message('control_change', channel=9, control=4, value=0, time=34),\n",
       "  Message('control_change', channel=9, control=4, value=77, time=62),\n",
       "  Message('note_on', channel=9, note=44, velocity=77, time=0),\n",
       "  Message('note_off', channel=9, note=40, velocity=64, time=0),\n",
       "  Message('note_on', channel=9, note=51, velocity=60, time=16),\n",
       "  Message('control_change', channel=9, control=4, value=90, time=19),\n",
       "  Message('note_off', channel=9, note=44, velocity=64, time=77),\n",
       "  Message('note_off', channel=9, note=51, velocity=64, time=16),\n",
       "  Message('note_on', channel=9, note=38, velocity=32, time=9),\n",
       "  Message('control_change', channel=9, control=4, value=42, time=50),\n",
       "  Message('control_change', channel=9, control=4, value=78, time=33),\n",
       "  Message('note_on', channel=9, note=44, velocity=45, time=0),\n",
       "  Message('note_on', channel=9, note=36, velocity=71, time=21),\n",
       "  Message('note_off', channel=9, note=38, velocity=64, time=8),\n",
       "  Message('control_change', channel=9, control=4, value=90, time=6),\n",
       "  Message('note_on', channel=9, note=51, velocity=51, time=6),\n",
       "  Message('note_off', channel=9, note=44, velocity=64, time=70),\n",
       "  Message('note_off', channel=9, note=36, velocity=64, time=21),\n",
       "  Message('control_change', channel=9, control=4, value=74, time=19),\n",
       "  Message('note_off', channel=9, note=51, velocity=64, time=1),\n",
       "  Message('control_change', channel=9, control=4, value=0, time=32),\n",
       "  Message('control_change', channel=9, control=4, value=77, time=70),\n",
       "  Message('note_on', channel=9, note=44, velocity=87, time=0),\n",
       "  Message('note_on', channel=9, note=51, velocity=54, time=18),\n",
       "  Message('control_change', channel=9, control=4, value=90, time=17),\n",
       "  Message('note_off', channel=9, note=44, velocity=64, time=76),\n",
       "  Message('note_off', channel=9, note=51, velocity=64, time=18),\n",
       "  Message('control_change', channel=9, control=4, value=58, time=30),\n",
       "  Message('control_change', channel=9, control=4, value=11, time=30),\n",
       "  Message('control_change', channel=9, control=4, value=78, time=37),\n",
       "  Message('note_on', channel=9, note=44, velocity=57, time=0),\n",
       "  Message('note_on', channel=9, note=38, velocity=111, time=33),\n",
       "  Message('control_change', channel=9, control=4, value=90, time=2),\n",
       "  Message('note_on', channel=9, note=51, velocity=59, time=7),\n",
       "  Message('note_off', channel=9, note=44, velocity=64, time=69),\n",
       "  Message('note_off', channel=9, note=38, velocity=64, time=34),\n",
       "  Message('control_change', channel=9, control=4, value=74, time=6),\n",
       "  Message('note_off', channel=9, note=51, velocity=64, time=2),\n",
       "  Message('control_change', channel=9, control=4, value=0, time=34),\n",
       "  Message('control_change', channel=9, control=4, value=77, time=73),\n",
       "  Message('note_on', channel=9, note=44, velocity=80, time=0),\n",
       "  Message('note_on', channel=9, note=51, velocity=51, time=21),\n",
       "  Message('control_change', channel=9, control=4, value=90, time=15),\n",
       "  Message('note_off', channel=9, note=44, velocity=64, time=76),\n",
       "  Message('note_on', channel=9, note=38, velocity=39, time=7),\n",
       "  Message('note_off', channel=9, note=51, velocity=64, time=14),\n",
       "  Message('control_change', channel=9, control=4, value=24, time=53),\n",
       "  Message('control_change', channel=9, control=4, value=77, time=41),\n",
       "  Message('note_on', channel=9, note=44, velocity=52, time=0),\n",
       "  Message('note_off', channel=9, note=38, velocity=64, time=3),\n",
       "  Message('note_on', channel=9, note=51, velocity=50, time=6),\n",
       "  Message('note_on', channel=9, note=36, velocity=50, time=12),\n",
       "  Message('control_change', channel=9, control=4, value=90, time=15),\n",
       "  Message('note_off', channel=9, note=44, velocity=64, time=77),\n",
       "  Message('note_off', channel=9, note=51, velocity=64, time=7),\n",
       "  Message('note_off', channel=9, note=36, velocity=64, time=12),\n",
       "  Message('note_on', channel=9, note=51, velocity=49, time=1),\n",
       "  Message('note_on', channel=9, note=36, velocity=57, time=12),\n",
       "  Message('control_change', channel=9, control=4, value=58, time=16),\n",
       "  Message('control_change', channel=9, control=4, value=0, time=35),\n",
       "  Message('note_off', channel=9, note=51, velocity=64, time=49),\n",
       "  Message('note_off', channel=9, note=36, velocity=64, time=11),\n",
       "  Message('note_on', channel=9, note=38, velocity=99, time=1),\n",
       "  Message('note_on', channel=9, note=51, velocity=48, time=4),\n",
       "  Message('control_change', channel=9, control=4, value=78, time=2),\n",
       "  Message('note_on', channel=9, note=44, velocity=85, time=0),\n",
       "  Message('control_change', channel=9, control=4, value=90, time=35),\n",
       "  Message('note_off', channel=9, note=38, velocity=64, time=71),\n",
       "  Message('note_off', channel=9, note=44, velocity=64, time=4),\n",
       "  Message('note_off', channel=9, note=51, velocity=64, time=0),\n",
       "  Message('control_change', channel=9, control=4, value=74, time=39),\n",
       "  Message('control_change', channel=9, control=4, value=10, time=35),\n",
       "  Message('control_change', channel=9, control=4, value=77, time=38),\n",
       "  Message('note_on', channel=9, note=44, velocity=57, time=0),\n",
       "  Message('note_on', channel=9, note=51, velocity=43, time=16),\n",
       "  Message('control_change', channel=9, control=4, value=90, time=19),\n",
       "  Message('note_on', channel=9, note=38, velocity=102, time=72),\n",
       "  Message('note_off', channel=9, note=44, velocity=64, time=5),\n",
       "  Message('note_off', channel=9, note=51, velocity=64, time=16),\n",
       "  Message('control_change', channel=9, control=4, value=58, time=18),\n",
       "  Message('control_change', channel=9, control=4, value=0, time=30),\n",
       "  Message('note_off', channel=9, note=38, velocity=64, time=42),\n",
       "  Message('control_change', channel=9, control=4, value=77, time=24),\n",
       "  Message('note_on', channel=9, note=44, velocity=77, time=0),\n",
       "  Message('note_on', channel=9, note=51, velocity=56, time=0),\n",
       "  Message('control_change', channel=9, control=4, value=90, time=36),\n",
       "  Message('note_off', channel=9, note=44, velocity=64, time=76),\n",
       "  Message('note_off', channel=9, note=51, velocity=64, time=0),\n",
       "  Message('note_on', channel=9, note=38, velocity=33, time=2),\n",
       "  Message('control_change', channel=9, control=4, value=73, time=46),\n",
       "  Message('control_change', channel=9, control=4, value=14, time=37),\n",
       "  Message('note_off', channel=9, note=38, velocity=64, time=29),\n",
       "  Message('control_change', channel=9, control=4, value=78, time=5),\n",
       "  Message('note_on', channel=9, note=44, velocity=52, time=0),\n",
       "  Message('note_on', channel=9, note=43, velocity=127, time=6),\n",
       "  Message('control_change', channel=9, control=4, value=90, time=29),\n",
       "  Message('note_off', channel=9, note=44, velocity=64, time=77),\n",
       "  Message('note_off', channel=9, note=43, velocity=64, time=5),\n",
       "  Message('control_change', channel=9, control=4, value=73, time=19),\n",
       "  Message('note_on', channel=9, note=38, velocity=34, time=18),\n",
       "  Message('control_change', channel=9, control=4, value=0, time=15),\n",
       "  Message('control_change', channel=9, control=4, value=78, time=66),\n",
       "  Message('note_on', channel=9, note=44, velocity=82, time=1),\n",
       "  Message('note_on', channel=9, note=51, velocity=53, time=22),\n",
       "  Message('note_off', channel=9, note=38, velocity=64, time=7),\n",
       "  Message('control_change', channel=9, control=4, value=90, time=5),\n",
       "  Message('note_off', channel=9, note=44, velocity=64, time=77),\n",
       "  Message('note_off', channel=9, note=51, velocity=64, time=22),\n",
       "  Message('note_on', channel=9, note=36, velocity=52, time=24),\n",
       "  Message('control_change', channel=9, control=4, value=41, time=20),\n",
       "  Message('control_change', channel=9, control=4, value=79, time=30),\n",
       "  Message('note_on', channel=9, note=44, velocity=42, time=1),\n",
       "  Message('control_change', channel=9, control=4, value=90, time=35),\n",
       "  Message('note_on', channel=9, note=51, velocity=83, time=4),\n",
       "  Message('note_on', channel=9, note=40, velocity=112, time=3),\n",
       "  Message('note_off', channel=9, note=36, velocity=64, time=19),\n",
       "  Message('note_off', channel=9, note=44, velocity=64, time=50),\n",
       "  Message('note_off', channel=9, note=51, velocity=64, time=40),\n",
       "  Message('note_off', channel=9, note=40, velocity=64, time=2),\n",
       "  Message('control_change', channel=9, control=4, value=58, time=8),\n",
       "  Message('control_change', channel=9, control=4, value=0, time=31),\n",
       "  Message('control_change', channel=9, control=4, value=77, time=86),\n",
       "  Message('note_on', channel=9, note=44, velocity=75, time=0),\n",
       "  Message('note_on', channel=9, note=36, velocity=69, time=17),\n",
       "  Message('note_on', channel=9, note=51, velocity=38, time=8),\n",
       "  Message('control_change', channel=9, control=4, value=90, time=10),\n",
       "  Message('note_off', channel=9, note=44, velocity=64, time=77),\n",
       "  Message('note_on', channel=9, note=38, velocity=30, time=15),\n",
       "  Message('note_off', channel=9, note=36, velocity=64, time=1),\n",
       "  Message('note_off', channel=9, note=51, velocity=64, time=8),\n",
       "  Message('control_change', channel=9, control=4, value=45, time=55),\n",
       "  Message('control_change', channel=9, control=4, value=80, time=31),\n",
       "  Message('note_on', channel=9, note=44, velocity=35, time=0),\n",
       "  Message('note_off', channel=9, note=38, velocity=64, time=16),\n",
       "  Message('note_on', channel=9, note=51, velocity=42, time=15),\n",
       "  Message('control_change', channel=9, control=4, value=90, time=5),\n",
       "  Message('note_on', channel=9, note=36, velocity=60, time=8),\n",
       "  Message('note_off', channel=9, note=44, velocity=64, time=69),\n",
       "  Message('note_off', channel=9, note=51, velocity=64, time=28),\n",
       "  Message('note_off', channel=9, note=36, velocity=64, time=15),\n",
       "  Message('control_change', channel=9, control=4, value=58, time=9),\n",
       "  Message('control_change', channel=9, control=4, value=0, time=30),\n",
       "  Message('control_change', channel=9, control=4, value=78, time=68),\n",
       "  Message('note_on', channel=9, note=44, velocity=82, time=0),\n",
       "  Message('note_on', channel=9, note=40, velocity=105, time=15),\n",
       "  Message('note_on', channel=9, note=51, velocity=59, time=4),\n",
       "  Message('control_change', channel=9, control=4, value=90, time=16),\n",
       "  Message('note_off', channel=9, note=44, velocity=64, time=77),\n",
       "  Message('note_off', channel=9, note=40, velocity=64, time=15),\n",
       "  Message('note_off', channel=9, note=51, velocity=64, time=3),\n",
       "  Message('control_change', channel=9, control=4, value=43, time=49),\n",
       "  Message('control_change', channel=9, control=4, value=79, time=41),\n",
       "  Message('note_on', channel=9, note=44, velocity=45, time=1),\n",
       "  Message('control_change', channel=9, control=4, value=90, time=34),\n",
       "  Message('note_on', channel=9, note=51, velocity=36, time=11),\n",
       "  Message('note_off', channel=9, note=44, velocity=64, time=66),\n",
       "  Message('note_on', channel=9, note=38, velocity=96, time=27),\n",
       "  Message('control_change', channel=9, control=4, value=57, time=16),\n",
       "  Message('note_off', channel=9, note=51, velocity=64, time=3),\n",
       "  Message('control_change', channel=9, control=4, value=0, time=31),\n",
       "  Message('control_change', channel=9, control=4, value=78, time=60),\n",
       "  Message('note_on', channel=9, note=44, velocity=77, time=0),\n",
       "  Message('note_off', channel=9, note=38, velocity=64, time=1),\n",
       "  Message('note_on', channel=9, note=51, velocity=63, time=30),\n",
       "  Message('control_change', channel=9, control=4, value=90, time=4),\n",
       "  Message('note_off', channel=9, note=44, velocity=64, time=76),\n",
       "  Message('note_on', channel=9, note=38, velocity=38, time=28),\n",
       "  Message('note_off', channel=9, note=51, velocity=64, time=3),\n",
       "  Message('control_change', channel=9, control=4, value=25, time=40),\n",
       "  Message('control_change', channel=9, control=4, value=79, time=35),\n",
       "  Message('note_on', channel=9, note=44, velocity=55, time=0),\n",
       "  Message('note_on', channel=9, note=36, velocity=52, time=11),\n",
       "  Message('note_off', channel=9, note=38, velocity=64, time=23),\n",
       "  Message('control_change', channel=9, control=4, value=90, time=2),\n",
       "  Message('note_on', channel=9, note=51, velocity=45, time=23),\n",
       "  Message('note_off', channel=9, note=44, velocity=64, time=53),\n",
       "  Message('note_off', channel=9, note=36, velocity=64, time=10),\n",
       "  Message('note_on', channel=9, note=36, velocity=60, time=35),\n",
       "  Message('control_change', channel=9, control=4, value=57, time=1),\n",
       "  Message('note_off', channel=9, note=51, velocity=64, time=12),\n",
       "  Message('control_change', channel=9, control=4, value=0, time=20),\n",
       "  Message('control_change', channel=9, control=4, value=78, time=69),\n",
       "  Message('note_on', channel=9, note=44, velocity=75, time=0),\n",
       "  Message('note_off', channel=9, note=36, velocity=64, time=10),\n",
       "  Message('note_on', channel=9, note=51, velocity=73, time=7),\n",
       "  Message('note_on', channel=9, note=40, velocity=96, time=1),\n",
       "  Message('control_change', channel=9, control=4, value=90, time=18),\n",
       "  Message('note_off', channel=9, note=44, velocity=64, time=76),\n",
       "  Message('note_off', channel=9, note=51, velocity=64, time=16),\n",
       "  Message('note_off', channel=9, note=40, velocity=64, time=2),\n",
       "  Message('control_change', channel=9, control=4, value=78, time=45),\n",
       "  Message('control_change', channel=9, control=4, value=83, time=42),\n",
       "  Message('control_change', channel=9, control=4, value=90, time=34),\n",
       "  Message('note_on', channel=9, note=51, velocity=40, time=13),\n",
       "  Message('note_on', channel=9, note=38, velocity=33, time=88),\n",
       "  Message('note_off', channel=9, note=51, velocity=64, time=23),\n",
       "  Message('control_change', channel=9, control=4, value=57, time=8),\n",
       "  Message('note_on', channel=9, note=38, velocity=32, time=17),\n",
       "  Message('note_off', channel=9, note=38, velocity=64, time=0),\n",
       "  Message('control_change', channel=9, control=4, value=0, time=16),\n",
       "  Message('note_on', channel=9, note=38, velocity=32, time=15),\n",
       "  Message('note_off', channel=9, note=38, velocity=64, time=0),\n",
       "  Message('note_on', channel=9, note=38, velocity=28, time=26),\n",
       "  Message('note_off', channel=9, note=38, velocity=64, time=0),\n",
       "  Message('note_off', channel=9, note=38, velocity=64, time=7),\n",
       "  Message('control_change', channel=9, control=4, value=77, time=11),\n",
       "  Message('note_on', channel=9, note=44, velocity=82, time=1),\n",
       "  Message('note_on', channel=9, note=51, velocity=54, time=30),\n",
       "  Message('note_on', channel=9, note=36, velocity=61, time=1),\n",
       "  Message('control_change', channel=9, control=4, value=90, time=3),\n",
       "  Message('note_off', channel=9, note=44, velocity=64, time=77),\n",
       "  Message('note_off', channel=9, note=36, velocity=64, time=30),\n",
       "  Message('note_off', channel=9, note=51, velocity=64, time=0),\n",
       "  Message('control_change', channel=9, control=4, value=66, time=35),\n",
       "  Message('control_change', channel=9, control=4, value=78, time=31),\n",
       "  Message('control_change', channel=9, control=4, value=90, time=37),\n",
       "  Message('note_on', channel=9, note=51, velocity=48, time=20),\n",
       "  Message('note_on', channel=9, note=36, velocity=61, time=5),\n",
       "  Message('control_change', channel=9, control=4, value=73, time=98),\n",
       "  Message('note_off', channel=9, note=51, velocity=64, time=8),\n",
       "  Message('note_off', channel=9, note=36, velocity=64, time=5),\n",
       "  Message('control_change', channel=9, control=4, value=0, time=21),\n",
       "  Message('control_change', channel=9, control=4, value=78, time=69),\n",
       "  Message('note_on', channel=9, note=44, velocity=82, time=1),\n",
       "  Message('control_change', channel=9, control=4, value=90, time=34),\n",
       "  Message('note_on', channel=9, note=40, velocity=102, time=7),\n",
       "  Message('note_on', channel=9, note=51, velocity=71, time=4),\n",
       "  Message('note_off', channel=9, note=44, velocity=64, time=67),\n",
       "  Message('note_off', channel=9, note=40, velocity=64, time=40),\n",
       "  Message('note_off', channel=9, note=51, velocity=64, time=5),\n",
       "  Message('control_change', channel=9, control=4, value=58, time=2),\n",
       "  Message('control_change', channel=9, control=4, value=11, time=30),\n",
       "  Message('control_change', channel=9, control=4, value=79, time=32),\n",
       "  Message('note_on', channel=9, note=44, velocity=62, time=1),\n",
       "  Message('control_change', channel=9, control=4, value=90, time=35),\n",
       "  Message('note_on', channel=9, note=51, velocity=42, time=36),\n",
       "  Message('note_off', channel=9, note=44, velocity=64, time=40),\n",
       "  Message('control_change', channel=9, control=4, value=74, time=39),\n",
       "  Message('note_on', channel=9, note=38, velocity=83, time=6),\n",
       "  Message('note_off', channel=9, note=51, velocity=64, time=26),\n",
       "  Message('control_change', channel=9, control=4, value=0, time=5),\n",
       "  Message('control_change', channel=9, control=4, value=78, time=68),\n",
       "  Message('note_on', channel=9, note=44, velocity=80, time=0),\n",
       "  Message('note_off', channel=9, note=38, velocity=64, time=12),\n",
       "  Message('control_change', channel=9, control=4, value=90, time=23),\n",
       "  Message('note_on', channel=9, note=51, velocity=64, time=10),\n",
       "  Message('note_off', channel=9, note=44, velocity=64, time=66),\n",
       "  Message('note_on', channel=9, note=38, velocity=31, time=32),\n",
       "  Message('note_off', channel=9, note=51, velocity=64, time=14),\n",
       "  Message('control_change', channel=9, control=4, value=41, time=26),\n",
       "  Message('control_change', channel=9, control=4, value=78, time=42),\n",
       "  Message('note_on', channel=9, note=44, velocity=42, time=0),\n",
       "  Message('note_off', channel=9, note=38, velocity=64, time=30),\n",
       "  Message('note_on', channel=9, note=36, velocity=46, time=2),\n",
       "  Message('control_change', channel=9, control=4, value=90, time=4),\n",
       "  Message('note_on', channel=9, note=51, velocity=44, time=22),\n",
       "  Message('note_off', channel=9, note=44, velocity=64, time=55),\n",
       "  Message('note_off', channel=9, note=36, velocity=64, time=31),\n",
       "  Message('control_change', channel=9, control=4, value=73, time=6),\n",
       "  Message('note_off', channel=9, note=51, velocity=64, time=19),\n",
       "  Message('note_on', channel=9, note=36, velocity=53, time=7),\n",
       "  Message('control_change', channel=9, control=4, value=0, time=10),\n",
       "  Message('control_change', channel=9, control=4, value=77, time=82),\n",
       "  Message('note_on', channel=9, note=44, velocity=85, time=1),\n",
       "  Message('note_on', channel=9, note=51, velocity=65, time=16),\n",
       "  Message('note_off', channel=9, note=36, velocity=64, time=2),\n",
       "  Message('note_on', channel=9, note=38, velocity=114, time=1),\n",
       "  Message('control_change', channel=9, control=4, value=90, time=16),\n",
       "  Message('note_off', channel=9, note=44, velocity=64, time=77),\n",
       "  Message('note_off', channel=9, note=51, velocity=64, time=16),\n",
       "  Message('note_off', channel=9, note=38, velocity=64, time=3),\n",
       "  Message('control_change', channel=9, control=4, value=24, time=58),\n",
       "  Message('control_change', channel=9, control=4, value=78, time=33),\n",
       "  Message('note_on', channel=9, note=44, velocity=42, time=1),\n",
       "  Message('control_change', channel=9, control=4, value=90, time=35),\n",
       "  Message('note_on', channel=9, note=51, velocity=45, time=12),\n",
       "  Message('note_off', channel=9, note=44, velocity=64, time=65),\n",
       "  Message('control_change', channel=9, control=4, value=73, time=34),\n",
       "  Message('note_on', channel=9, note=38, velocity=40, time=1),\n",
       "  Message('note_off', channel=9, note=51, velocity=64, time=11),\n",
       "  Message('control_change', channel=9, control=4, value=0, time=23),\n",
       "  Message('note_on', channel=9, note=38, velocity=41, time=11),\n",
       "  Message('note_off', channel=9, note=38, velocity=64, time=0),\n",
       "  Message('note_on', channel=9, note=38, velocity=34, time=27),\n",
       "  Message('note_off', channel=9, note=38, velocity=64, time=0),\n",
       "  Message('note_on', channel=9, note=38, velocity=31, time=19),\n",
       "  Message('note_off', channel=9, note=38, velocity=64, time=0),\n",
       "  Message('control_change', channel=9, control=4, value=78, time=17),\n",
       "  Message('note_on', channel=9, note=44, velocity=70, time=0),\n",
       "  Message('note_off', channel=9, note=38, velocity=64, time=4),\n",
       "  Message('note_on', channel=9, note=36, velocity=62, time=17),\n",
       "  Message('note_on', channel=9, note=51, velocity=55, time=4),\n",
       "  Message('control_change', channel=9, control=4, value=90, time=10),\n",
       "  Message('note_off', channel=9, note=44, velocity=64, time=77),\n",
       "  Message('note_off', channel=9, note=36, velocity=64, time=20),\n",
       "  Message('note_off', channel=9, note=51, velocity=64, time=4),\n",
       "  Message('control_change', channel=9, control=4, value=58, time=47),\n",
       "  Message('control_change', channel=9, control=4, value=86, time=38),\n",
       "  Message('control_change', channel=9, control=4, value=90, time=33),\n",
       "  Message('note_on', channel=9, note=36, velocity=61, time=12),\n",
       "  Message('note_on', channel=9, note=51, velocity=49, time=4),\n",
       "  Message('note_off', channel=9, note=36, velocity=64, time=108),\n",
       "  Message('note_off', channel=9, note=51, velocity=64, time=3),\n",
       "  Message('control_change', channel=9, control=4, value=57, time=8),\n",
       "  Message('control_change', channel=9, control=4, value=0, time=31),\n",
       "  Message('control_change', channel=9, control=4, value=78, time=69),\n",
       "  Message('note_on', channel=9, note=44, velocity=85, time=0),\n",
       "  Message('note_on', channel=9, note=38, velocity=111, time=22),\n",
       "  Message('note_on', channel=9, note=51, velocity=66, time=4),\n",
       "  Message('control_change', channel=9, control=4, value=90, time=9),\n",
       "  Message('note_off', channel=9, note=44, velocity=64, time=77),\n",
       "  Message('note_off', channel=9, note=38, velocity=64, time=22),\n",
       "  Message('note_off', channel=9, note=51, velocity=64, time=4),\n",
       "  Message('control_change', channel=9, control=4, value=58, time=48),\n",
       "  Message('control_change', channel=9, control=4, value=80, time=33),\n",
       "  Message('note_on', channel=9, note=44, velocity=17, time=1),\n",
       "  Message('control_change', channel=9, control=4, value=90, time=35),\n",
       "  Message('note_on', channel=9, note=51, velocity=42, time=25),\n",
       "  Message('note_off', channel=9, note=44, velocity=64, time=52),\n",
       "  Message('control_change', channel=9, control=4, value=58, time=52),\n",
       "  Message('note_on', channel=9, note=38, velocity=117, time=6),\n",
       "  Message('note_off', channel=9, note=51, velocity=64, time=1),\n",
       "  Message('control_change', channel=9, control=4, value=0, time=23),\n",
       "  Message('control_change', channel=9, control=4, value=76, time=66),\n",
       "  Message('note_on', channel=9, note=44, velocity=82, time=0),\n",
       "  Message('note_off', channel=9, note=38, velocity=64, time=21),\n",
       "  Message('control_change', channel=9, control=4, value=90, time=15),\n",
       "  Message('note_on', channel=9, note=51, velocity=49, time=10),\n",
       "  Message('note_off', channel=9, note=44, velocity=64, time=66),\n",
       "  Message('note_on', channel=9, note=38, velocity=42, time=40),\n",
       "  Message('note_off', channel=9, note=51, velocity=64, time=6),\n",
       "  Message('control_change', channel=9, control=4, value=26, time=23),\n",
       "  Message('control_change', channel=9, control=4, value=78, time=43),\n",
       "  Message('note_on', channel=9, note=44, velocity=42, time=0),\n",
       "  Message('control_change', channel=9, control=4, value=90, time=36),\n",
       "  Message('note_off', channel=9, note=38, velocity=64, time=4),\n",
       "  Message('note_on', channel=9, note=36, velocity=76, time=7),\n",
       "  Message('note_on', channel=9, note=51, velocity=56, time=1),\n",
       "  Message('note_off', channel=9, note=44, velocity=64, time=65),\n",
       "  Message('control_change', channel=9, control=4, value=74, time=39),\n",
       "  Message('note_off', channel=9, note=36, velocity=64, time=7),\n",
       "  Message('note_off', channel=9, note=51, velocity=64, time=0),\n",
       "  Message('control_change', channel=9, control=4, value=0, time=28),\n",
       "  Message('control_change', channel=9, control=4, value=78, time=74),\n",
       "  Message('note_on', channel=9, note=44, velocity=80, time=0),\n",
       "  Message('note_on', channel=9, note=51, velocity=46, time=25),\n",
       "  Message('control_change', channel=9, control=4, value=90, time=10),\n",
       "  Message('note_off', channel=9, note=44, velocity=64, time=77),\n",
       "  Message('note_off', channel=9, note=51, velocity=64, time=24),\n",
       "  Message('control_change', channel=9, control=4, value=43, time=60),\n",
       "  Message('control_change', channel=9, control=4, value=79, time=33),\n",
       "  Message('note_on', channel=9, note=44, velocity=30, time=0),\n",
       "  Message('note_on', channel=9, note=51, velocity=83, time=29),\n",
       "  Message('note_on', channel=9, note=38, velocity=114, time=3),\n",
       "  Message('control_change', channel=9, control=4, value=90, time=3),\n",
       "  Message('note_off', channel=9, note=44, velocity=64, time=78),\n",
       "  Message('note_off', channel=9, note=51, velocity=64, time=27),\n",
       "  Message('note_off', channel=9, note=38, velocity=64, time=4),\n",
       "  Message('control_change', channel=9, control=4, value=73, time=3),\n",
       "  Message('control_change', channel=9, control=4, value=0, time=32),\n",
       "  Message('control_change', channel=9, control=4, value=78, time=74),\n",
       "  Message('note_on', channel=9, note=44, velocity=80, time=0),\n",
       "  Message('control_change', channel=9, control=4, value=90, time=35),\n",
       "  Message('note_on', channel=9, note=51, velocity=46, time=1),\n",
       "  Message('note_on', channel=9, note=38, velocity=32, time=69),\n",
       "  Message('note_off', channel=9, note=44, velocity=64, time=6),\n",
       "  Message('note_off', channel=9, note=51, velocity=64, time=37),\n",
       "  Message('control_change', channel=9, control=4, value=74, time=6),\n",
       "  Message('control_change', channel=9, control=4, value=13, time=34),\n",
       "  Message('note_off', channel=9, note=38, velocity=64, time=28),\n",
       "  Message('control_change', channel=9, control=4, value=77, time=4),\n",
       "  Message('note_on', channel=9, note=44, velocity=52, time=1),\n",
       "  Message('note_on', channel=9, note=36, velocity=49, time=27),\n",
       "  Message('note_on', channel=9, note=51, velocity=51, time=4),\n",
       "  Message('control_change', channel=9, control=4, value=90, time=4),\n",
       "  Message('note_off', channel=9, note=44, velocity=64, time=76),\n",
       "  Message('note_off', channel=9, note=36, velocity=64, time=28),\n",
       "  Message('note_off', channel=9, note=51, velocity=64, time=3),\n",
       "  Message('note_on', channel=9, note=36, velocity=54, time=3),\n",
       "  Message('note_on', channel=9, note=51, velocity=45, time=9),\n",
       "  Message('control_change', channel=9, control=4, value=56, time=2),\n",
       "  Message('control_change', channel=9, control=4, value=0, time=31),\n",
       "  Message('note_off', channel=9, note=36, velocity=64, time=69),\n",
       "  Message('control_change', channel=9, control=4, value=78, time=6),\n",
       "  Message('note_on', channel=9, note=44, velocity=85, time=0),\n",
       "  Message('note_off', channel=9, note=51, velocity=64, time=4),\n",
       "  Message('note_on', channel=9, note=38, velocity=104, time=6),\n",
       "  Message('note_on', channel=9, note=51, velocity=59, time=11),\n",
       "  Message('control_change', channel=9, control=4, value=90, time=14),\n",
       "  Message('note_off', channel=9, note=44, velocity=64, time=77),\n",
       "  Message('note_off', channel=9, note=38, velocity=64, time=10),\n",
       "  Message('note_off', channel=9, note=51, velocity=64, time=11),\n",
       "  Message('control_change', channel=9, control=4, value=24, time=46),\n",
       "  Message('control_change', channel=9, control=4, value=78, time=40),\n",
       "  Message('note_on', channel=9, note=44, velocity=40, time=0),\n",
       "  Message('note_on', channel=9, note=51, velocity=46, time=33),\n",
       "  Message('control_change', channel=9, control=4, value=90, time=2),\n",
       "  Message('note_off', channel=9, note=44, velocity=64, time=76),\n",
       "  Message('note_off', channel=9, note=51, velocity=64, time=33),\n",
       "  Message('note_on', channel=9, note=38, velocity=80, time=3),\n",
       "  Message('control_change', channel=9, control=4, value=57, time=2),\n",
       "  Message('control_change', channel=9, control=4, value=0, time=30),\n",
       "  Message('control_change', channel=9, control=4, value=78, time=67),\n",
       "  Message('note_on', channel=9, note=44, velocity=77, time=0),\n",
       "  Message('note_off', channel=9, note=38, velocity=64, time=12),\n",
       "  Message('note_on', channel=9, note=53, velocity=30, time=11),\n",
       "  Message('control_change', channel=9, control=4, value=90, time=12),\n",
       "  Message('note_off', channel=9, note=44, velocity=64, time=77),\n",
       "  Message('note_on', channel=9, note=38, velocity=37, time=19),\n",
       "  Message('note_off', channel=9, note=53, velocity=64, time=3),\n",
       "  Message('control_change', channel=9, control=4, value=58, time=46),\n",
       "  Message('control_change', channel=9, control=4, value=80, time=30),\n",
       "  Message('note_on', channel=9, note=44, velocity=22, time=1),\n",
       "  Message('note_on', channel=9, note=52, velocity=84, time=31),\n",
       "  Message('note_off', channel=9, note=38, velocity=64, time=0),\n",
       "  Message('control_change', channel=9, control=4, value=90, time=3),\n",
       "  Message('note_on', channel=9, note=36, velocity=127, time=8),\n",
       "  Message('note_off', channel=9, note=44, velocity=64, time=69),\n",
       "  Message('note_off', channel=9, note=52, velocity=64, time=33),\n",
       "  Message('control_change', channel=9, control=4, value=74, time=3),\n",
       "  Message('note_off', channel=9, note=36, velocity=64, time=7),\n",
       "  Message('control_change', channel=9, control=4, value=0, time=28),\n",
       "  Message('control_change', channel=9, control=4, value=76, time=72),\n",
       "  Message('note_on', channel=9, note=44, velocity=77, time=0),\n",
       "  Message('control_change', channel=9, control=4, value=90, time=36),\n",
       "  Message('note_on', channel=9, note=51, velocity=33, time=5),\n",
       "  Message('note_off', channel=9, note=44, velocity=64, time=72),\n",
       "  Message('note_off', channel=9, note=51, velocity=64, time=39),\n",
       "  Message('note_on', channel=9, note=38, velocity=116, time=106),\n",
       "  Message('note_on', channel=9, note=51, velocity=74, time=4),\n",
       "  Message('note_off', channel=9, note=38, velocity=64, time=107),\n",
       "  Message('note_off', channel=9, note=51, velocity=64, time=4),\n",
       "  Message('control_change', channel=9, control=4, value=42, time=51),\n",
       "  Message('control_change', channel=9, control=4, value=79, time=44),\n",
       "  Message('note_on', channel=9, note=44, velocity=25, time=0),\n",
       "  Message('control_change', channel=9, control=4, value=90, time=36),\n",
       "  Message('note_off', channel=9, note=44, velocity=64, time=77),\n",
       "  MetaMessage('end_of_track', time=0)])"
      ]
     },
     "execution_count": 59,
     "metadata": {},
     "output_type": "execute_result"
    }
   ],
   "source": [
    "midi_file.tracks[0]"
   ]
  },
  {
   "cell_type": "code",
   "execution_count": 61,
   "metadata": {},
   "outputs": [],
   "source": [
    "messages = []\n",
    "metamessages = []\n",
    "for i in range(len(midi_file.tracks[0])):\n",
    "    if (midi_file.tracks[0][i].type == 'note_on') or (midi_file.tracks[0][i].type == 'note_off') or (midi_file.tracks[0][i].type == 'control_change'):\n",
    "        messages.append(midi_file.tracks[0][i])\n",
    "    else:\n",
    "        metamessages.append(midi_file.tracks[0][i])"
   ]
  },
  {
   "cell_type": "code",
   "execution_count": 69,
   "metadata": {},
   "outputs": [
    {
     "data": {
      "text/plain": [
       "[Message('note_on', channel=9, note=55, velocity=60, time=3),\n",
       " Message('note_on', channel=9, note=51, velocity=55, time=4),\n",
       " Message('note_on', channel=9, note=36, velocity=64, time=3),\n",
       " Message('control_change', channel=9, control=4, value=90, time=3),\n",
       " Message('note_off', channel=9, note=55, velocity=64, time=102),\n",
       " Message('note_off', channel=9, note=51, velocity=64, time=3),\n",
       " Message('note_off', channel=9, note=36, velocity=64, time=2),\n",
       " Message('control_change', channel=9, control=4, value=87, time=69),\n",
       " Message('note_on', channel=9, note=36, velocity=57, time=22),\n",
       " Message('control_change', channel=9, control=4, value=90, time=10)]"
      ]
     },
     "execution_count": 69,
     "metadata": {},
     "output_type": "execute_result"
    }
   ],
   "source": [
    "messages[0:10]"
   ]
  },
  {
   "cell_type": "code",
   "execution_count": 68,
   "metadata": {},
   "outputs": [
    {
     "data": {
      "text/plain": [
       "[MetaMessage('track_name', name='MIDI', time=0),\n",
       " MetaMessage('instrument_name', name='Brooklyn', time=0),\n",
       " MetaMessage('time_signature', numerator=4, denominator=4, clocks_per_click=24, notated_32nd_notes_per_beat=8, time=0),\n",
       " MetaMessage('key_signature', key='C', time=0),\n",
       " MetaMessage('smpte_offset', frame_rate=25, hours=1, minutes=0, seconds=0, frames=0, sub_frames=0, time=0),\n",
       " MetaMessage('set_tempo', tempo=434783, time=0),\n",
       " MetaMessage('end_of_track', time=0)]"
      ]
     },
     "execution_count": 68,
     "metadata": {},
     "output_type": "execute_result"
    }
   ],
   "source": [
    "metamessages"
   ]
  }
 ],
 "metadata": {
  "kernelspec": {
   "display_name": "ML",
   "language": "python",
   "name": "python3"
  },
  "language_info": {
   "codemirror_mode": {
    "name": "ipython",
    "version": 3
   },
   "file_extension": ".py",
   "mimetype": "text/x-python",
   "name": "python",
   "nbconvert_exporter": "python",
   "pygments_lexer": "ipython3",
   "version": "3.9.18"
  }
 },
 "nbformat": 4,
 "nbformat_minor": 2
}
